<svg width="2817" height="1870" viewBox="0 0 2817 1870" fill="none" xmlns="http://www.w3.org/2000/svg">
<path d="M176.597 649.18C176.066 645.75 170.737 632.36 163.118 621.23C156.692 611.85 157.108 600.87 148.643 586.42C142.383 575.74 127.627 573.21 120.286 567.81C112.954 562.41 135.014 588.2 141.205 597.44C142.602 599.52 144.648 600.75 143.452 599.14C132.857 584.84 125.262 575.69 117.922 565.15C105.483 547.29 106.277 532.13 107.811 520.32C108.264 516.83 108.992 512.74 109.721 512.65C134.071 509.62 119.537 573.71 119.928 581.24C120.695 596 100.294 545.87 94.753 534C93.6346 531.61 96.9645 555.33 102.334 575.44C107.774 595.81 81.2168 508.25 80.6744 495.45C80.283 486.21 86.4506 520.81 88.1044 527.35C98.1293 566.98 100.798 471.67 102.249 468.2C103.388 465.48 107.96 506.44 112.936 553.14C114.185 564.86 107.931 496.19 102.679 471.94C97.8039 449.43 89.6447 539.92 87.2353 546.35C84.5295 553.58 81.0001 491.43 81.5968 464.31C81.8507 452.76 83.9871 493.13 84.8057 500.26C87.4871 523.64 116.326 452.76 125.708 438.81C128.289 434.97 124.662 436.65 121.693 439.42C110.31 450.06 105.326 461.32 91.0299 472.59C88.641 474.47 87.0778 471.34 87.3422 468.88C89.0431 453.05 106.632 438.07 115.429 417.51C117.475 412.73 118.982 410.06 118.489 409.73C110.103 404.12 97.5738 444.78 88.4015 468.73C87.0343 472.3 82.7512 460.04 82.3373 453.09C80.9653 430.03 100.308 393.93 105.428 367.78C106.404 362.8 107.875 360.32 108.26 362.21C111.871 379.91 100.114 400.51 90.2224 423.74C88.3774 428.07 88.262 431 88.7997 431.46C94.6096 436.54 99.3609 411.06 114.176 327.93C118.469 303.835 121.996 295.649 122.219 294.505C126.135 274.401 108.472 328.78 107.667 334.67C103.571 364.63 133.371 224.209 134.181 224.643C145.075 230.483 128.317 249.416 125.64 252.889C115.942 265.467 120.086 213.585 119.098 208.984C118.236 204.969 120.266 224.237 118.399 221.567C116.533 218.896 111.873 202.062 108.498 195.422C105.124 188.782 103.176 192.846 101.73 196.71C99.0085 203.982 98.3089 210.244 96.7126 212.204C87.8594 223.076 67.6316 177.83 53.9824 161.463C51.794 158.839 62.4618 156.712 70.4185 155.886C73.8782 155.527 76.2326 156.312 78.1568 157.737C87.8529 164.916 84.8332 181.151 83.4997 185.073C79.6692 196.338 77.4984 154.385 80.3952 139.586C81.1998 135.476 83.4666 131.475 84.76 130.495C92.6422 124.521 78.6265 158.423 73.6227 165.205C72.2121 167.118 70.7439 163.429 70.4678 160.684C69.96 155.635 75.4235 139.428 82.6028 119.688C84.8355 113.549 86.0015 116.014 86.8226 120.113C88.8045 130.006 90.1913 138.731 90.6641 141.752C91.0063 143.939 86.8436 135.342 85.9539 130.171C85.1224 125.337 92.2854 121.693 98.3507 118.968C116.101 110.993 147.289 117.584 181.443 118.54C209.891 119.335 260.95 118.075 289.755 117.41C318.56 116.744 323.574 116.024 324.038 116.271C327.617 118.179 307.575 120.682 274.69 124.321C209.833 131.498 166.026 128.215 161.661 123.673C157.115 118.944 137.007 118.024 115.103 114.483C110.093 113.673 153.976 104.367 217.853 94.7256C240.906 91.2466 245.067 91.4476 245.071 91.9786C245.304 126.603 167.582 103.926 156.878 103.3C147.573 102.757 131.843 104.359 126.079 104.124C120.314 103.889 124.98 102.629 225.29 96.2976C325.6 89.9676 521.413 78.6056 622.556 74.1686C723.699 69.7316 724.239 72.5646 722.746 74.9086C721.254 77.2516 717.712 79.0196 665.788 85.9676C613.864 92.9146 513.665 104.989 463.757 111.917C413.849 118.845 417.27 120.262 422.072 121.346C426.874 122.43 432.953 123.138 446.254 123.383C459.555 123.629 479.892 123.39 550.695 112.987C621.498 102.585 742.149 82.0256 802.986 71.6086C861.204 61.6406 861.378 62.2536 869.81 62.4296C883.415 62.7146 896.143 60.9676 917.23 64.2176C962.882 71.2556 995.283 80.5226 999.017 82.3976C999.833 82.8076 997.252 83.5017 961.211 81.7407C925.171 79.9797 855.441 76.0956 816.175 74.6206C776.91 73.1446 770.222 74.1956 768.303 75.2686C766.384 76.3406 769.435 77.4036 806.219 81.5676C843.003 85.7316 913.427 92.9646 950.963 96.9566C988.499 100.95 991.014 101.481 933.367 105.213C875.721 108.946 757.837 115.864 694.542 119.959C631.246 124.054 626.111 125.116 722.094 120.518C818.076 115.92 1015.33 105.628 1065.33 103.991C1115.32 102.354 1012.08 109.682 962.156 113.899C912.232 118.117 918.754 119.002 1026.62 114.481C1134.49 109.96 1343.51 100.005 1381.28 94.6396C1419.06 89.2736 1279.26 88.7986 1194.18 90.2966C1109.1 91.7936 1082.97 95.2796 1068.19 97.4296C1053.4 99.5786 1050.74 100.288 1121.45 97.9116C1192.17 95.5366 1336.32 90.0556 1323.01 88.2956C1309.69 86.5346 1134.53 88.6596 1029.99 92.0076C925.444 95.3556 896.823 99.8616 883.871 102.626C870.92 105.391 874.505 106.276 994.723 103.155C1114.94 100.034 1351.68 92.8796 1426.43 91.4966C1501.18 90.1136 1406.77 94.7176 1355.41 97.8206C1304.04 100.925 1298.6 102.389 1377.33 101.526C1456.06 100.663 1619.14 97.4276 1713.36 94.3886C1807.59 91.3506 1828.02 88.6056 1771.82 88.4786C1715.63 88.3516 1582.17 90.9246 1494.24 95.0496C1406.31 99.1746 1367.94 104.774 1346.59 108.13C1325.23 111.487 1322.04 112.431 1430.22 105.331C1538.4 98.2306 1758.05 83.0586 1671.51 83.7716C1584.98 84.4846 1185.6 101.543 976.855 110.151C768.106 118.759 762.085 118.399 759.884 117.403C757.683 116.407 759.483 114.787 758.728 113.232C756.504 108.651 746.361 106.953 740.469 103.864C738.962 103.074 742.061 101.852 945.796 94.9386C1149.53 88.0266 1554.21 74.9466 1763.95 68.0276C1973.68 61.1096 1976.2 60.7496 1984.12 60.8296C1992.04 60.9096 2005.29 61.4416 2011.32 62.6886C2017.35 63.9366 2015.76 65.8846 2013.7 67.1536C2009.55 69.7156 1958.65 70.7996 1908.47 74.0006C1905.55 74.1866 1951.21 78.3706 1979.94 79.4026C2008.67 80.4346 2019.79 79.9567 2023.32 79.5297C2026.85 79.1037 2022.43 78.7436 1949.97 82.2296C1877.51 85.7156 1737.14 93.0586 1661.24 97.5726C1585.33 102.088 1578.16 103.552 1575.71 104.926C1573.27 106.299 1575.78 107.539 1652.39 103.306C1728.99 99.0737 1879.61 89.3316 1955.98 84.1326C2032.34 78.9336 2029.89 78.5737 1962.75 80.7537C1895.62 82.9337 1763.87 87.6646 1692.08 90.9396C1620.29 94.2156 1612.44 95.8916 1614.42 97.7876C1616.4 99.6846 1628.43 101.751 1755.04 95.7466C1881.64 89.7426 2122.45 75.6056 2188.46 74.9706C2240.12 74.4736 2041.18 100.79 2081.02 99.1626C2110.35 97.9656 2126.35 94.7926 2131.2 95.0586C2132.82 95.1466 2114.14 97.9956 2096.61 100.588C2092.29 101.227 2097.55 101.94 2122.6 99.6746C2147.64 97.4086 2192.4 92.5126 2214.94 91.0526C2236.39 89.6626 2237.69 94.7926 2241.86 95.1436C2243.76 95.3046 2244.96 92.6296 2244.99 90.2596C2245.02 87.8886 2243.78 85.1886 2241.99 83.6176C2238.59 80.6316 2232.87 81.4916 2203.18 82.3206C2176.14 83.0756 2124.8 84.0946 2089.32 86.9746C2053.85 89.8536 2035.79 94.4576 2027.48 97.5386C2019.17 100.619 2021.16 102.035 2023.71 103.031C2029.29 104.557 2070.84 102.345 2135.12 97.1366C2160.98 94.6876 2173.14 92.6336 2191.66 92.6466" stroke="#FFCD00" stroke-width="36" stroke-linecap="round"/>
<path d="M2241.5 88.2277C2246 94.2537 2269 130.19 2284.85 151.944C2288.02 156.304 2294.55 160.218 2292.17 154.701C2282.28 131.762 2265.27 110.694 2261.52 101.972C2255.88 88.8727 2286.02 137.78 2286.93 140.842C2294.58 166.369 2261.91 100.601 2242.61 82.6267C2237.32 77.6947 2231.38 73.7517 2229.36 73.5937C2204.13 71.6247 2280.71 144.849 2291.27 155.204C2295.59 159.438 2281.75 135.928 2279.27 129.781C2277.7 125.874 2299.9 161.723 2324.4 208.165C2337.59 233.164 2281.05 163.162 2278.38 159.042C2277.04 156.99 2295.54 196.282 2312.52 235.866C2327.7 271.227 2293.07 190.075 2294.69 181.961C2295.4 178.435 2319.69 218.988 2346.08 269.24C2354.19 284.681 2347.29 281.768 2341.27 278.774C2335.25 275.78 2329.23 273.321 2326.13 270.884C2323.03 268.448 2323.03 266.107 2323.93 266.673C2339.22 276.27 2336.47 313.654 2335.17 330.97C2334.93 334.22 2334.38 336.68 2333.75 335.45C2320.47 309.376 2331.52 264.712 2332.7 257.451C2332.84 256.599 2332.7 270.439 2329.35 296.088C2324.54 332.82 2313.33 369.76 2304.46 396.1C2300.87 406.77 2297.85 411.54 2295.75 412.79C2292.55 414.71 2289.61 370.92 2289.6 299.739C2289.59 239.263 2299.54 208.971 2302.53 206.577C2305.53 204.179 2307.23 218.472 2309.52 247.05C2311.33 269.565 2311.81 308.521 2310.76 341.58C2309.72 374.64 2306.46 400.67 2304.1 408.99C2302.97 412.99 2299.74 369.02 2301.88 322.292C2303.21 293.229 2310.18 276.359 2314.98 267.407C2316.29 264.962 2317.81 268.598 2319.15 294.552C2320.49 320.505 2322.24 369.13 2322.09 402.85C2321.87 453.96 2316.85 475.14 2314.98 477.12C2309.49 482.9 2312.93 424.78 2315.85 363.45C2316.96 340.34 2318.52 333.58 2322.48 356.32C2326.44 379.07 2333.08 431.56 2336.59 467.91C2340.09 504.25 2340.27 522.87 2332.21 500.44C2324.15 478.01 2307.83 413.96 2300.48 382.9C2293.13 351.85 2295.23 355.73 2301.19 383.55C2307.15 411.37 2316.91 463.02 2321.97 478.42C2324.68 486.67 2328.7 435.06 2331.39 413.53C2332.43 405.25 2333.27 402.4 2339.41 424.78C2345.56 447.17 2357.11 494.9 2363.33 522.59C2369.55 550.28 2370.09 556.47 2369.57 560.68" stroke="#FFCD00" stroke-width="36" stroke-linecap="round"/>
<path d="M2392.45 556.95C2396.59 557.3 2417.89 563.45 2430.45 569.09C2439.9 573.33 2402.77 554.41 2390.44 549.6C2386.95 548.25 2389.83 547.49 2393.64 547.39C2415.03 546.85 2436.6 555.32 2445.86 560.51C2448.14 561.79 2450.38 563.54 2450.35 564.54C2450.26 567.38 2418.24 556.9 2378.4 542.66C2365.52 538.05 2367.97 537.57 2391.9 547.77C2415.84 557.96 2461.29 578.54 2483.2 589.4C2505.12 600.26 2502.12 600.79 2469.78 591.37C2437.44 581.95 2375.84 562.56 2344.74 551.22C2313.65 539.88 2314.92 537.18 2317.91 535.61C2331.72 528.34 2347.41 536.63 2416.44 556.88C2435.51 562.48 2376.18 532.64 2378.8 530C2390.42 518.31 2433.5 533.6 2475.48 542.51C2495.88 546.84 2502.79 551.43 2506.79 555.8C2510.1 559.42 2509 565.2 2507.76 569.12C2506.52 573.06 2496.71 569.47 2490.55 567.97C2487.74 567.29 2498.3 581.1 2502.91 590C2515.36 614 2451.33 552.32 2436.11 545.7C2418.3 537.96 2487.92 598.45 2509.31 624.59C2535.77 656.93 2473.31 569.12 2463.96 560.95C2457.44 555.26 2472.56 575.76 2506.59 614.48C2521.75 631.73 2534.23 642.69 2541.62 649.4C2549.01 656.11 2551.34 657.88 2544.02 647.89C2536.7 637.89 2519.67 616.08 2514.97 611.59C2508 604.93 2536.68 647.46 2559.16 674.96C2585.04 706.61 2604.23 722.63 2605.25 721.81C2612.68 715.88 2586.25 696.59 2560.6 671.7C2545.59 657.15 2524.1 641.29 2517.72 636.04C2497.67 619.53 2558.66 676.94 2565.26 687.39C2574.62 702.19 2513.2 627.36 2507.43 615.78C2505.79 612.49 2504.84 608.04 2505.97 605.46C2507.1 602.88 2510.7 602.16 2513.72 602.67C2525.68 604.69 2546.57 644.62 2567.87 680.72C2575.36 693.42 2533.19 624.84 2514.98 588.45C2509.62 577.75 2514.04 581.96 2539.11 622.57C2564.17 663.18 2610.23 739.85 2632.62 777.36C2655.02 814.88 2652.37 810.93 2644.95 796.13C2637.53 781.32 2625.43 755.8 2620.96 744.23C2616.49 732.67 2620.02 735.84 2635.11 757.68C2650.21 779.52 2676.76 819.94 2691.33 842.53C2705.91 865.12 2707.71 868.66 2704.48 864.23C2701.24 859.81 2692.92 847.3 2671.4 822.78C2649.89 798.26 2615.43 762.09 2596.88 742.3C2578.33 722.5 2576.74 720.17 2577.09 718.69C2577.44 717.22 2579.78 716.67 2582.14 717.31C2584.51 717.94 2586.83 719.77 2598.92 740.24C2611.01 760.7 2632.79 799.74 2645.8 825.06C2658.8 850.37 2662.37 860.78 2661.93 861.85C2650.07 891.06 2634.59 782.4 2634.99 761.2C2635.02 759.22 2639.31 760.95 2641.78 762.74C2644.24 764.52 2646.39 767.18 2656.98 786.89C2667.56 806.6 2686.5 843.28 2697.67 866.69C2708.84 890.1 2711.66 899.13 2712.58 902.53C2716.01 915.2 2704.19 865.03 2704.28 859.8C2704.32 857.23 2705.27 854.91 2707.61 858.57C2725.35 886.26 2724.35 908.43 2723.57 918.01C2722.48 931.3 2705.96 887.97 2704.15 874.49C2703.71 871.16 2704.51 867.72 2706.05 867.46C2729.67 863.49 2722.55 930.79 2722.21 943.57C2722.12 947.22 2719.51 944.8 2717.97 941.35C2710.73 925.08 2714.64 911.61 2716.55 909.03C2722.51 900.95 2720.01 935.56 2714.99 953.99C2712.05 964.78 2701.6 981.39 2691.6 997.33C2689.95 999.98 2694.04 981.2 2702.21 961.5C2704.73 955.41 2706.66 958.55 2707.4 962.13C2711.09 979.99 2702.3 1009.25 2682.65 1051.27C2678.96 1059.16 2677.15 1061.08 2676.33 1060.2C2668.2 1051.44 2679.19 1034.77 2683.26 1025.8C2684.77 1022.47 2686.36 1036.46 2685.26 1043.6C2683.28 1056.45 2669.27 1071.63 2656.05 1084.86C2653.88 1087.03 2660.27 1071.78 2669.45 1059.47C2676.93 1049.44 2655.55 1100.45 2642.9 1116.02C2636.84 1123.48 2627.04 1127.17 2620.69 1129.04C2606.19 1133.32 2642.32 1095.6 2647.15 1091.94C2655.22 1085.81 2632.64 1118.57 2614.98 1136.8C2598.05 1154.26 2585.43 1156.63 2582.04 1156.81C2580.59 1156.88 2580.43 1153.76 2581.15 1151.12C2581.87 1148.48 2583.67 1145.62 2602.06 1124.42C2620.46 1103.22 2655.4 1063.76 2672.24 1044.59C2689.09 1025.41 2686.79 1027.71 2683.89 1031.29C2665.19 1054.37 2646.04 1087.41 2630.29 1100.87C2626.26 1104.31 2620.67 1106.11 2618.02 1106.01C2615.38 1105.91 2615.38 1103.22 2616.55 1098.61C2623.9 1069.71 2644.24 1046.29 2646.2 1047.46C2669.12 1061.25 2610.76 1101.38 2590.8 1124.95C2575.5 1143.01 2555.42 1156.29 2534.58 1170.26C2504.53 1190.42 2489.84 1191.61 2486.53 1190.36C2472.71 1185.11 2512.22 1147.52 2539.75 1126.68C2545.84 1122.07 2553.93 1119.34 2557.8 1118.87C2561.67 1118.4 2561.68 1121.23 2560.72 1124.55C2555.42 1142.73 2532.68 1164.14 2494.99 1191.84C2487.34 1197.46 2483.49 1198.66 2481.59 1197.72C2479.69 1196.77 2479.54 1193.18 2480.54 1190.07C2485 1176.18 2506 1166.39 2540.58 1154.38C2546.36 1152.38 2546.47 1155.94 2544.98 1158.37C2536.91 1171.45 2509.61 1181.37 2464.17 1191.64C2428.52 1199.69 2524 1144.65 2533.44 1140.22C2555.62 1129.82 2470.25 1184.89 2452.34 1189.32C2449.46 1190.03 2449.09 1186.03 2450.97 1182.58C2460.16 1165.75 2477.75 1159.92 2500.01 1152.63C2500.99 1152.31 2490.63 1158.85 2460.99 1169.22C2431.35 1179.58 2381.74 1194.97 2353.61 1203.37C2325.49 1211.76 2320.35 1212.71 2343.05 1202.97C2365.75 1193.24 2416.44 1172.79 2439.78 1165.53C2463.12 1158.27 2457.58 1164.83 2451.11 1171.11C2427.4 1194.12 2397.89 1204.33 2370.8 1214.26C2362.02 1217.48 2362.56 1214.77 2363.65 1212.49C2365.92 1207.75 2376.09 1195.99 2389.23 1183.47C2393.28 1179.61 2394.66 1184.14 2394.56 1187.82C2394.14 1203.4 2379.89 1222.28 2352.35 1250.85C2328.99 1275.08 2385.87 1200.37 2384.42 1207.32C2382.57 1216.25 2367.63 1246.1 2344.42 1298.14C2332.61 1324.61 2324.77 1352.93 2320.85 1364.35C2318.86 1370.14 2340.28 1312.63 2368.53 1260.4C2372.11 1253.78 2369.48 1309.88 2365.48 1338.32C2360.79 1371.63 2357.42 1378.76 2354.74 1380.81C2335.94 1395.22 2352.65 1311.44 2362.09 1280.77C2363.98 1274.62 2365.64 1272.6 2366.92 1273.26C2386.17 1283.16 2369.03 1340.55 2359 1377.8C2357.66 1382.77 2356.21 1380.17 2359.09 1342.85C2361.96 1305.53 2368.44 1233.3 2371.51 1201.76C2374.59 1170.21 2374.06 1181.53 2374.24 1189.05C2374.41 1196.57 2375.31 1199.93 2377.33 1205.01" stroke="#FFCD00" stroke-width="36" stroke-linecap="round"/>
<path d="M2379.42 1311.81C2375.05 1329.17 2365.29 1371.11 2365.21 1381.92C2365.19 1385.04 2368.53 1382.94 2371.54 1379.23C2374.54 1375.52 2377.95 1370.15 2381.36 1363.8C2384.77 1357.46 2388.07 1350.3 2391.15 1362.49C2394.22 1374.67 2396.97 1406.42 2397.86 1419.91C2398.37 1427.65 2393.82 1396.62 2391.38 1368.66C2389.82 1350.84 2399.56 1426.86 2398.61 1452.18C2397.86 1472.15 2386.89 1422.73 2387.07 1416.17C2387.56 1398.39 2386.18 1459.27 2380.28 1471.29C2378.99 1473.91 2376.59 1475.41 2375.41 1474.08C2361.97 1458.98 2384.52 1421.59 2394.68 1403.66C2396.96 1399.64 2400.36 1396.55 2402.76 1395.5C2405.16 1394.46 2406.96 1395.86 2407.68 1398.88C2411.95 1416.82 2394.84 1455.18 2380.72 1483.76C2378.7 1487.86 2376.04 1488.72 2374.42 1487.51C2372.79 1486.29 2371.55 1482.53 2369.25 1457.93C2366.95 1433.33 2363.62 1388 2362.17 1362.09C2360.73 1336.18 2361.27 1331.06 2362.65 1330.42C2367.13 1328.37 2374.53 1371.51 2383.96 1429.81C2390.3 1469.06 2386.71 1490.51 2383.23 1498.1C2382.23 1500.28 2380.16 1497.32 2379.34 1494.5C2374.65 1478.32 2382.32 1455.99 2387.95 1447.8C2389.12 1446.11 2392.44 1448.44 2393.91 1451.2C2401.55 1465.45 2380.12 1488.4 2372.08 1497.97C2367.43 1503.51 2380.57 1472.08 2393.36 1454.23C2402.01 1442.14 2391.69 1489.18 2382.6 1508.21C2379.63 1514.43 2373.42 1521.64 2370.51 1523.15C2354.85 1531.23 2379.33 1470.81 2389.95 1451.58C2391.78 1448.27 2388.78 1472.32 2382.83 1496.91C2377.66 1518.27 2356.95 1550.96 2333.67 1583.92C2326.54 1594.02 2326.08 1588.48 2329.38 1576.06C2345.44 1515.72 2363.25 1495.87 2368.9 1489.84C2382.7 1475.1 2355.91 1533.24 2341.94 1553.3C2333.77 1565.04 2322.68 1569.27 2317.42 1571.51C2314.7 1572.66 2311.62 1573.21 2309.81 1571.95C2307.99 1570.7 2307.47 1567.47 2307.73 1564.46C2308.88 1551.62 2327.8 1532.31 2341.5 1521.58C2357.49 1509.04 2316.04 1571.45 2284.64 1593.61C2274.68 1600.64 2261.23 1605.96 2253.73 1608.21C2246.23 1610.45 2244.46 1608.47 2244.72 1605.67C2245.34 1598.82 2262.22 1582.52 2284.83 1559.87C2314.16 1530.48 2341.5 1523.34 2351.81 1522.21C2359.33 1521.39 2338.02 1553.89 2313.88 1583.96C2290.16 1613.51 2261.82 1619.98 2243.65 1624.25C2237.1 1625.79 2235.36 1622.12 2237.25 1616.92C2249.91 1582.01 2297.85 1563.55 2319.93 1556.8C2323.05 1555.85 2324.03 1560.69 2323.26 1564.19C2319.52 1581.2 2295.92 1595.35 2262.39 1615.04C2254.58 1619.63 2248 1620.92 2244.01 1621.15C2240.03 1621.37 2238.44 1619.74 2238.16 1617.74C2236.36 1604.85 2255.08 1590.26 2266.56 1584.78C2279.01 1578.83 2244.89 1618.85 2185.72 1662.08C2172.49 1671.75 2165.53 1674.59 2161.18 1675.45C2156.83 1676.31 2154.88 1674.51 2154.96 1671.78C2155.15 1665.07 2162.66 1659.4 2168.82 1655.85C2171.57 1654.27 2174.27 1654.64 2176.2 1655.87C2180.32 1658.52 2180.69 1664.45 2180.24 1669.97C2179.09 1684.37 2166.98 1697.83 2158.89 1712.53C2154.26 1720.94 2167.58 1694.06 2176.46 1688.31C2186.56 1681.76 2197.78 1685.47 2202.92 1686.62C2205.5 1687.2 2207.54 1689.37 2208.38 1691.87C2210.21 1697.28 2205.67 1704.92 2200.94 1710.37C2199.21 1712.36 2196.74 1710.29 2195.92 1707.67C2194 1701.55 2197.63 1694.16 2201.44 1689.87C2202.94 1688.18 2205.6 1690.05 2206.63 1693.33C2211.55 1709.14 2203.56 1719.88 2196.5 1729.29C2194.66 1731.75 2191.08 1732.42 2188.82 1731.53C2186.56 1730.64 2185.14 1727.58 2185.22 1723.76C2185.4 1715.3 2190.03 1709.05 2194.72 1705.43C2201.87 1699.91 2211.38 1700.3 2217.33 1701.37C2220.1 1701.87 2222.21 1703.15 2224.21 1705.64C2228.88 1711.44 2229.87 1718.35 2229.43 1722.99C2228.97 1727.79 2224.89 1732.83 2220.16 1737.03C2216.39 1740.38 2209.16 1735.86 2202.82 1731.42C2199.86 1729.34 2198.08 1726.79 2197.08 1724.42C2196.08 1722.04 2196.08 1719.7 2197.7 1717.77C2199.32 1715.85 2202.56 1714.41 2206.29 1714.2C2210.02 1713.99 2214.15 1715.05 2217.35 1717.19C2220.56 1719.33 2222.72 1722.52 2223.74 1726.02C2224.77 1729.52 2224.6 1733.24 2222.83 1736.75C2219.02 1744.28 2210.86 1748.32 2204.35 1750.83C2201.28 1752 2198.36 1751.91 2196.02 1751.11C2193.67 1750.3 2191.9 1748.5 2190.9 1745.86C2189.9 1743.22 2189.72 1739.81 2190.44 1737.15C2191.16 1734.48 2192.78 1732.68 2194.52 1732.82C2198.7 1733.14 2202.07 1742.23 2204.01 1749.55C2204.62 1751.85 2201.15 1751.54 2199.25 1750.27C2191.53 1745.1 2189.86 1720.45 2188.73 1699.79C2188.53 1696.13 2190.25 1693.12 2191.95 1690.38C2193.64 1687.65 2195.98 1685.31 2198.08 1685.61C2200.19 1685.91 2201.99 1688.92 2203 1692.07C2204.02 1695.21 2204.2 1698.4 2203.59 1701.28C2202.97 1704.16 2201.55 1706.64 2199.5 1708.27C2195.37 1711.54 2189.57 1711.16 2184.3 1710.44C2171.97 1708.74 2161.16 1697.6 2151.89 1685.85C2147.46 1680.23 2145.73 1673.91 2145.37 1668.4C2145.19 1665.57 2147.17 1662.71 2149.89 1660.78C2152.6 1658.85 2156.56 1657.95 2159.85 1657.93C2163.14 1657.91 2165.66 1658.79 2167.05 1660.66C2168.44 1662.54 2168.62 1665.37 2167.21 1667.8C2160.02 1680.21 2118.87 1670.73 2093.22 1663.49C2090.63 1662.75 2092.66 1659.71 2096.45 1658.51C2100.25 1657.31 2106.35 1656.95 2110.48 1657.65C2114.61 1658.35 2116.59 1660.12 2117.97 1662.36C2119.35 1664.6 2120.07 1667.26 2119.55 1669.43C2119.04 1671.59 2117.27 1673.18 2114.85 1674.18C2109.68 1676.32 2102.78 1675.3 2078.4 1667.65C2057.42 1661.06 2019.55 1647.11 2002.82 1639.8C1986.09 1632.49 1991.81 1631.77 2017.54 1633.26C2043.27 1634.75 2088.85 1638.47 2117.04 1641.34C2154.77 1645.19 2168.65 1649.46 2175.94 1652.31C2179.08 1653.54 2180.57 1655.4 2179.9 1656.93C2178 1661.25 2156 1661.35 2085.68 1656.72C2032.39 1653.21 1943.68 1642.79 1899.38 1638.35C1855.07 1633.92 1857.95 1634.63 1882.74 1638.02C1907.53 1641.42 1954.14 1647.47 1977.19 1651.3C2000.25 1655.13 1998.33 1656.54 1995.83 1657.15C1990.47 1658.47 1958.01 1649.73 1925.5 1639.18C1921.26 1637.81 1945.73 1637.95 1956.26 1639.13C1966.79 1640.31 1963.62 1640.84 1920.85 1642.09C1878.08 1643.33 1795.82 1645.28 1751.4 1646.58C1706.98 1647.88 1702.91 1648.47 1746.55 1648.86C1790.19 1649.26 1881.66 1649.43 1925.51 1649.52C1969.36 1649.61 1962.81 1649.61 1888.15 1643.69C1813.49 1637.77 1670.92 1625.92 1643.09 1621.06C1615.26 1616.21 1706.49 1618.7 1698.93 1622.9C1691.36 1627.1 1582.25 1632.93 1523.03 1636.5C1463.81 1640.07 1457.79 1641.19 1508.18 1640.53C1558.58 1639.88 1665.58 1637.41 1668.92 1633.93C1672.26 1630.44 1568.7 1626.01 1510.32 1624.14C1441.9 1621.94 1428.66 1624.45 1427.14 1626.11C1425.97 1627.39 1433.99 1628.95 1486.2 1632.29C1538.4 1635.63 1637.1 1640.53 1685.47 1643.33C1733.84 1646.12 1728.88 1646.65 1699.73 1647.66C1670.57 1648.66 1617.37 1650.13 1588.82 1651.24C1560.26 1652.34 1557.96 1653.05 1582.17 1652.94C1606.38 1652.82 1657.17 1651.86 1623.05 1649.23C1588.94 1646.59 1468.37 1642.31 1401.86 1640.52C1335.34 1638.73 1326.53 1639.55 1343.08 1640.15C1359.62 1640.76 1401.79 1641.11 1421.48 1641.2C1441.17 1641.3 1437.1 1641.12 1402.46 1639.95C1367.82 1638.78 1302.75 1636.63 1267.63 1635.91C1232.51 1635.19 1229.33 1635.95 1230.79 1637.03C1232.25 1638.1 1238.45 1639.46 1289.23 1638.27C1340 1637.09 1435.17 1633.32 1472.95 1631.73C1510.73 1630.14 1488.25 1630.84 1431.4 1627.4C1374.56 1623.96 1284.03 1616.36 1249.08 1614.6C1214.13 1612.84 1237.5 1617.16 1270.83 1619.97C1304.15 1622.77 1346.74 1623.93 1365.31 1624.88C1383.88 1625.83 1377.15 1626.54 1330.89 1627.73C1284.63 1628.92 1199.04 1630.58 1204.1 1632.71C1209.17 1634.85 1307.47 1637.41 1352.36 1638.91C1397.24 1640.41 1385.73 1640.76 1316.18 1638.08C1246.63 1635.41 1119.38 1629.68 1052.14 1627.03C984.91 1624.38 981.546 1624.97 981.247 1625.54C980.948 1626.11 983.816 1626.64 1030.62 1629.22C1077.42 1631.8 1168.06 1636.4 1193.95 1639.57C1210.27 1641.57 1101.53 1643.85 1089.42 1641.54C1068.12 1637.49 1189.28 1643.08 1228.23 1644.07C1267.17 1645.06 1264.52 1645.24 1210.55 1640.86C1156.59 1636.48 1051.4 1627.54 1044.51 1624.27C1037.61 1621.01 1132.18 1623.71 1178.96 1625.53C1225.73 1627.36 1221.84 1628.25 1154.41 1627.66C1086.98 1627.08 956.137 1624.99 887.582 1624.09C819.028 1623.19 816.726 1623.55 863.267 1627.44C909.808 1631.34 1005.26 1638.76 1053.11 1642.77C1100.96 1646.77 1098.32 1647.12 1059.91 1647.41C1021.51 1647.7 947.422 1647.92 908.016 1648.29C868.611 1648.67 866.132 1649.2 868.045 1650.24C869.959 1651.28 876.339 1652.82 929.801 1654.38C983.263 1655.94 1083.61 1657.47 1133.63 1658C1183.65 1658.52 1180.3 1657.98 1114.4 1653.89C1048.49 1649.81 920.141 1642.19 893.001 1638.26C865.861 1634.34 943.822 1634.34 925.333 1634.25C906.844 1634.17 789.542 1634 762.599 1636.11C735.656 1638.22 802.627 1642.63 835.887 1645.6C869.148 1648.58 866.669 1650 834.86 1649.49C803.052 1648.97 741.99 1646.49 711.977 1644.94C681.964 1643.39 684.85 1642.85 706.524 1642.92C728.198 1643 768.571 1643.71 744.655 1641.68C720.738 1639.64 631.308 1634.85 613.829 1630.03C596.349 1625.21 653.531 1620.5 673.337 1619.97C676.618 1619.88 622.244 1628.17 576.613 1630.57C562.649 1631.31 567.528 1633.51 607.444 1637.51C647.36 1641.51 722.21 1647.86 757.765 1651.22C793.32 1654.59 787.311 1654.76 745.473 1652.72C703.634 1650.69 626.148 1646.43 584.991 1644.32C543.835 1642.22 541.356 1642.39 549.095 1642.01C556.834 1641.62 574.866 1640.66 588.534 1640.43C610.957 1640.05 559.177 1638.73 482.671 1633.84C466.556 1632.81 527.553 1628.18 519.895 1629.52C508.507 1631.51 468.824 1627.37 432.139 1625.88C427.895 1625.71 453.411 1631.89 465.339 1634.85C490.233 1641.04 370.635 1636.93 368.045 1637.82C363.754 1639.3 408.369 1642.44 459.473 1647.36C478.725 1649.22 484.228 1651.47 485.762 1652.94C487.76 1654.86 455.797 1648.64 416.673 1635.18C403.316 1630.58 404.591 1626.77 410.188 1623.8C442.016 1606.92 466.465 1611.72 477.057 1613.14C479.77 1613.51 482.217 1614.92 483.605 1616.97C484.994 1619.03 485.177 1622.04 484.208 1624.65C479.792 1636.57 460.016 1634.97 430.813 1632.19C406.499 1629.88 363.187 1623.14 339.334 1619.46C315.482 1615.78 312.471 1614.7 310.925 1612.88C309.378 1611.06 309.387 1608.54 310.643 1606.29C313.374 1601.38 331.669 1593.2 361.75 1580.18C391.994 1567.09 418.855 1563.38 434.901 1563.45C441.046 1563.48 442.99 1566.06 444.011 1570.52C446.556 1581.64 445.037 1591.3 443.895 1594.96C443.364 1596.67 440.445 1596.68 438.196 1596.32C427.147 1594.57 421.449 1581.79 420.112 1580.11C417.826 1577.24 418.999 1590.24 414.542 1596.05C404.39 1609.27 372.603 1604.76 340.389 1600.59C336.994 1600.15 374.388 1590.73 424.61 1583.6C449.171 1580.11 458.005 1581.14 462.178 1583.54C464.152 1584.67 463.133 1588.59 461.183 1592.54C459.233 1596.48 455.691 1601.08 452.45 1603.63C449.209 1606.18 446.376 1606.54 443.588 1606.27C438.046 1605.74 432.929 1602.37 428.818 1598.39C426.86 1596.49 426.479 1593.68 426.654 1591.21C426.829 1588.74 427.909 1586.4 429.546 1584.2C431.183 1582.01 433.343 1580.03 436.66 1576.35" stroke="#FFCD00" stroke-width="36" stroke-linecap="round"/>
<path d="M397.065 1550.02C397.065 1549.88 397.065 1549.73 395.753 1526.38C394.441 1503.02 391.818 1456.46 390.467 1435.67C389.529 1421.24 393.216 1460.35 399.358 1510.51C401.519 1528.16 401.257 1530.02 398.879 1505.92C396.501 1481.81 391.892 1431.7 389.656 1401.38C387.419 1371.05 387.696 1362.03 388.545 1352.73C389.393 1343.44 390.804 1334.15 392.26 1357.95C393.716 1381.75 395.175 1438.92 394.387 1473.27C393.599 1507.62 390.522 1517.43 388.865 1520.75C388.061 1522.36 388.293 1480.53 391.745 1458.62C394.048 1444.01 396.564 1540.23 397.645 1576.22C398.726 1612.2 398.063 1615.18 397.154 1615.71C396.244 1616.23 395.107 1614.21 393.689 1586.47C392.27 1558.73 390.603 1505.34 390.171 1473.65C389.624 1433.57 392.141 1421.64 393.593 1415.79C394.237 1413.19 395.239 1411.5 396.12 1412.88C414.14 1441.04 394.908 1495.01 392.884 1496.87C389.106 1500.34 384.661 1458.83 379.51 1408.28C376.462 1378.37 378.48 1363.74 379.983 1366.24C383.661 1372.33 381.58 1392.2 382.171 1400.56C382.573 1406.23 386.724 1375.74 391.846 1337.83C393.249 1327.44 394.035 1335.33 394.137 1341.2C394.469 1360.27 379.617 1255.75 379.356 1258.28C378.846 1263.25 378.575 1275.77 377.786 1280.27C377.452 1282.17 372.467 1257.6 369.097 1229.73C367.213 1214.14 372.205 1285.79 370.703 1287.23C366.996 1290.77 368.571 1251.53 369.669 1207.27C370.104 1189.71 371.386 1182.12 372.22 1179.9C372.882 1178.14 374.994 1206.4 375.729 1241.89C376.115 1260.53 373.975 1268.46 372.449 1271.97C372.015 1272.97 370.545 1271.04 368.995 1252.13C367.445 1233.22 365.419 1197.03 364.091 1176.82C362.763 1156.6 362.194 1153.46 361.831 1150.9C359.648 1135.55 360.293 1217.8 358.291 1225.79C350.376 1257.35 343.492 1145.45 339.283 1139.08C328.712 1123.08 338.426 1191.18 337.022 1192.04C312.758 1206.97 325.297 1132.79 322.149 1123.83C321.377 1121.64 326.876 1134.46 327.895 1144.28C328.323 1148.41 328.241 1150.83 326.514 1146.03C320.533 1129.43 315.643 1111.39 312.343 1104.39C311.753 1103.13 309.182 1109.87 305.605 1114.46C304.03 1116.48 301.743 1116.77 299.867 1116.71C285.156 1116.17 295.84 1075.34 298.091 1071.61C299.777 1068.82 309.92 1081.29 320.125 1080.74C389.837 1076.98 326.179 1003.53 327.918 1000.34C328.813 998.69 330.808 997.72 332.515 998.97C337.327 1002.5 343.804 1034.65 353.459 1078.14C357.121 1094.64 357.176 1100.07 356.492 1104.89C355.808 1109.71 354.103 1113.83 347.376 1095.46C340.649 1077.09 328.951 1036.1 322.617 1012.42C316.283 988.74 315.667 983.62 315.567 981.9C314.879 970.14 317.751 1038.42 315.064 1064.05C312.454 1088.96 309.41 1011.2 310.209 1008.78C310.388 1008.24 311.441 1010.23 317.123 1037.26C322.806 1064.3 333.426 1116.62 339.427 1145.06C345.427 1173.5 346.486 1176.49 347.536 1178.88C353.991 1193.56 348.776 1116.79 350.078 1112.73C355.424 1096.03 383.653 1085.89 386.559 1068.68C387.686 1062.01 385.599 1056.82 380.96 1046.68C359.435 999.61 335.164 981.48 332.943 980.71C329.522 979.52 332.153 993.94 330.248 999.25C320.674 1025.94 309.615 952.99 301.571 939.98C292.458 925.25 303.048 978.09 300.69 971.13C297.028 960.32 289.935 934.22 283.495 914.92C272.972 883.38 263.62 866.25 260.496 865.23C256.406 863.91 262.954 883.59 263.891 889.4C264.357 892.28 251.829 869.02 247.669 868.6C226.629 866.49 280.608 949.29 296.248 984.5C315.557 1027.97 324.043 1038.81 328.248 1042.82C329.812 1044.31 321.051 1013.48 302.643 965.56C287.648 926.52 274.412 905.96 271.258 897.28C268.987 891.02 273.75 906.39 278.531 928.56C280.362 937.04 255.281 892.65 235.491 863.16C221.24 841.93 220.874 832.6 218.367 818.09C212.771 785.71 208.408 778.89 200.593 771.39C194.429 765.47 191.461 756.6 188.671 752.33C181.348 741.12 178.25 779.33 176.257 778.95C173.041 778.35 171.423 768.09 170.249 764.84C163.192 745.32 193.749 835.27 200.753 846.92C201.828 848.71 201.938 835.05 196.818 808.98C191.697 782.91 182.384 743.03 177.372 720.47C169.565 685.33 175.109 662.9 178.571 648.61C180.641 640.07 182.291 633.95 182.372 633.16C182.512 631.78 179.704 638.93 176.747 657.24C168.662 707.3 165.88 743.4 162.45 735.61C147.656 702.04 145.964 670.01 146.254 661.82C146.435 656.72 158.576 687.65 173.462 734.67C178.14 749.45 178.473 745.28 177.838 730.89C176.116 691.87 174.992 664.35 175.718 662.13C176.734 664.21 182.09 674.5 190.096 687.76C193.34 692.93 194.924 694.92 196.556 696.96" stroke="#FFCD00" stroke-width="36" stroke-linecap="round"/>
<path d="M2479.15 1140.38C2473.52 1140.38 2455.91 1142.53 2443.61 1144.38C2420.44 1147.85 2530.13 1096.32 2555.83 1083.42C2563.13 1079.75 2536.97 1095.43 2528.29 1098.25C2507.77 1104.89 2561.09 1076.96 2578.05 1067.87C2584.61 1064.35 2592.32 1049.55 2600.47 1036.6C2610.69 1020.36 2577.44 1069.88 2566.74 1083.39C2558.74 1093.51 2553.86 1102.15 2553.32 1107.48C2550.23 1138.3 2615.61 1034.47 2620.94 1019.48C2627.35 1001.49 2640.84 976.97 2654.34 944.21C2660.89 928.33 2663.01 913.81 2668.88 898.63C2670.45 894.57 2671.43 890.37 2671.35 890.69C2668.04 904.14 2665.85 922.89 2662.46 955.37C2660.17 977.27 2645.38 989.01 2634.5 1000.55C2627.45 1008.02 2654.66 983.5 2665.48 960.83C2669.1 953.24 2668.66 942.27 2667.69 932.13C2664.99 904.03 2646.68 1011.55 2636.24 1024.63C2633.62 1027.91 2631.01 1030.08 2629.46 1029.33C2616.25 1022.89 2639.54 963.27 2647.53 927.32C2654.6 895.45 2642.68 878.39 2634.61 863.28C2627.98 850.89 2619.81 840.03 2604.34 811.51C2592.02 788.8 2575.76 771.63 2566.72 758.54C2556.73 744.08 2521.72 714.62 2503.28 696.16C2494.78 687.67 2499.72 671.49 2491.01 659.16C2478.21 641.05 2426.33 627.87 2399.06 618.27C2375.6 610 2368.51 596.82 2351.25 586.34C2316.93 565.51 2300.51 569.75 2297.14 567.84C2278.4 557.15 2349.4 605.16 2364.84 612.35C2384.1 621.31 2410.64 636.97 2438.09 649.91C2481 670.12 2494.88 672.69 2514.44 688.05C2531.87 701.73 2545.11 716.7 2556.21 731.96C2576.2 759.42 2585.69 794.18 2597.68 862.67C2602.88 892.36 2586.92 935.77 2578.51 962.99C2567.81 997.62 2568.25 1020.15 2566.04 1021.35C2564.2 1022.35 2562.9 1013.63 2551.65 968.25C2540.39 922.86 2519.73 838.38 2507.8 791.57C2491.38 727.2 2481.49 715.28 2475.06 705.45C2463.42 687.63 2527.15 785.67 2531.93 799.85C2539.26 821.62 2538.02 869.49 2532.5 931.17C2531.62 940.92 2531.93 943.93 2533.36 946.56C2534.8 949.2 2537.2 951.36 2540.52 952.57C2547.67 955.2 2555.56 952.91 2561.74 949.49C2564.87 947.75 2567.05 944.53 2569.83 942.29C2572.61 940.06 2575.67 938.52 2580 940.97C2606.88 956.18 2622.19 982.41 2629 994.23C2634.94 1004.55 2645.71 1009.29 2653.66 1010.04C2658.61 1010.5 2665.11 1005.33 2668.94 1002.09C2684.9 988.61 2664.57 945.72 2651.63 920.91C2634.5 888.08 2595.27 861.16 2579.67 849.36C2551.22 827.85 2560.81 894.45 2555.14 904.92C2553.51 907.93 2552.1 911.65 2551.21 915.15C2550.33 918.66 2550.11 921.9 2548.71 915.92C2543.76 894.84 2538.1 867.55 2529.8 846.36C2522.5 827.71 2495.69 788.27 2463.98 738.35C2450.65 717.36 2443.45 703.19 2425.62 677.34C2382.2 614.37 2364.47 606 2331.73 578.72C2324.88 573.01 2321.75 572.33 2321.84 570.67C2322.14 565.68 2331.28 563.24 2334.85 560.37C2343.92 553.08 2310.54 544.22 2289.87 521.23C2273.34 502.84 2270.23 469.51 2267.34 450.75C2264.32 431.09 2270.21 412.32 2270.57 389.64C2270.92 367.34 2270.25 344.38 2268.87 320.415C2268.29 310.461 2275.85 337.01 2292.45 401.97C2310.28 471.78 2309.74 514.77 2311.96 523.78C2314.9 535.74 2313.53 547.46 2312.13 552.46C2308.35 565.99 2295.98 519.92 2258.62 430.11C2241 387.74 2237.74 355.9 2235.13 335.4C2231.1 303.755 2234.93 278.883 2243.24 268.332C2250.64 258.938 2252 241.266 2255.11 232.873C2256.44 244.016 2258.65 261.311 2261.09 276.87C2261.99 283.798 2262.21 288.761 2262.48 299.738" stroke="#FFCD00" stroke-width="58" stroke-linecap="round"/>
<path d="M2284.41 238.958C2277.92 235.668 2260.93 221.966 2241.22 196.087C2219.58 167.67 2192.95 148.645 2187.22 135.1C2181.53 121.675 2221.29 145.394 2235.47 156.632C2251.87 169.626 2259.84 187.244 2265.21 197.593C2272.3 211.272 2251.76 159.256 2245.21 139.335C2241.16 127.019 2210.24 126.904 2187.14 120.567C2178.94 118.318 2177 122.417 2176.44 128.823C2173.87 158.104 2180.96 170.362 2187.71 188.658C2193.38 204.044 2203.96 221.994 2213.27 234.019C2216.03 237.593 2219.86 242.252 2220.82 243.255C2231.01 253.921 2155.55 199.591 2137.13 179.306C2135.14 177.113 2139.66 174.104 2140.02 171.216C2140.79 165.063 2136.04 158.794 2129.31 152.827C2112.47 137.89 2063.7 129.734 1997.14 122.973C1988.45 122.089 1990.62 126.399 1993.82 129.57C2007.07 142.68 2022.13 145.833 2047.42 149.115C2072.26 152.339 2093.1 142.925 2110.2 140.273C2115.21 139.496 2112.28 137.62 2104.9 135.516C2097.52 133.412 2085.65 130.56 2055.42 128.141C2025.19 125.723 1976.96 123.824 1949.73 122.953C1922.51 122.083 1917.76 122.299 1952.99 122.581C1988.21 122.863 2063.54 123.204 2104.54 125.215C2150.23 127.455 2157.53 136.399 2163.17 140.633C2169.03 145.03 2170.62 152.949 2170.44 158.932C2169.96 174.977 2131.55 170.415 2095.08 161.598C2069.82 155.492 2034.04 151.836 1966.95 145.74C1921.22 141.584 1851.58 137.162 1833.11 133.657C1814.64 130.152 1849.4 128.181 1868.73 126.836C1888.06 125.492 1890.9 124.834 1831.09 124.635C1771.28 124.436 1648.73 124.717 1578.81 125.653C1495.26 126.771 1470.92 131.527 1449.29 135.546C1437.99 137.646 1426.16 140.643 1379.55 141.392C1332.94 142.141 1251.96 140.749 1188.34 139.374C1124.72 137.999 1080.91 136.683 1056.4 136.22C1031.9 135.758 1028.01 136.19 1186.76 133.369C1345.51 130.549 1667.02 124.464 1838.63 120.671C2010.24 116.878 2022.21 115.562 2042.72 114.19C2063.23 112.818 2091.9 111.429 2105.49 111.577C2119.07 111.725 2116.7 113.452 2058.61 114.884C2000.52 116.316 1886.79 117.402 1753.48 123.768C1620.16 130.134 1470.71 141.747 1367.07 147.253C1263.43 152.759 1210.13 151.806 1148.06 150.216C1086 148.627 1016.78 146.429 901.822 144.817C786.863 143.205 628.26 142.245 544.938 141.531C458.374 140.789 452.022 139.926 441.079 139.268C393.693 136.418 360.509 128.85 351.799 126.759C348.924 126.069 350.89 122.255 354.092 120.238C375.154 106.969 412.554 117.277 421.882 121.195C448.011 132.168 357.756 120.259 350.044 123.629C345.859 125.458 340.821 126.785 347.427 127.671C419.591 137.348 476.524 124.818 471.01 126.996C465.133 129.316 427.667 128.755 374.794 128.971C340.663 129.11 316.77 135.503 283.183 144.409C233.21 157.66 192.111 152.714 150.661 154.79C141.688 155.239 138.256 156.832 135.507 158.79C130.184 162.58 127.951 169.026 126.535 171.723C121.608 181.108 129.116 150.079 133.448 139.748C140.342 123.307 172.843 145.63 205.621 151.894C222.043 155.033 249.884 155.582 260.556 157.591C271.228 159.599 264.108 161.541 256.231 163.621C218.937 173.467 179.533 182.893 163.852 191.194C157.538 194.537 151.742 199.267 147.715 203.831C127.63 226.595 202.171 269.195 205.635 282.276C208.243 292.126 204.248 302.779 200.445 310.397C194.614 322.08 182.695 331.51 177.435 347.01C174.805 354.76 173.73 361.86 169.715 363.91C152.175 372.85 152.59 306.246 155.455 276.404C155.918 271.586 155.922 268.106 156.8 271.566C168.451 317.495 160.652 373.26 158.132 393.74C153.195 433.85 151.91 445.45 151.043 451.98C149.983 459.97 145.233 381.48 143.849 348.16C142.129 306.777 156.458 446.63 154.958 459.41C153.315 473.4 151.902 510.92 159.301 546.64C164.675 572.58 178.428 586.33 188.22 599.23C199.738 614.4 206.602 626.02 213.492 638.79C221.889 654.35 232.981 674.85 242.059 688.57C251.809 703.3 257.365 724.29 261.683 740.84C264.189 750.44 256.289 717.94 242.351 660.3C235.242 630.9 228.773 609.71 216.46 568.63C196.037 500.5 174.711 450.95 170.464 438.88C161.336 412.93 185.263 519.11 186.629 537.18C187.049 542.74 183.362 540.95 180.802 538.5C166.965 525.27 143.767 496.87 132.219 480.15C127.495 473.31 124.902 464.85 123.823 465.01C90.8564 469.72 133.275 513.79 144.07 527.76C160.87 549.5 177.831 553.72 206.444 567.54C224.199 576.12 233.834 594.63 243.129 625.89C249.151 646.14 246.11 659.18 245.777 671.3C245.444 683.41 243.085 696.02 238.521 706.63C236.149 712.14 226.535 708.29 221.097 708.24C218.338 708.21 216.092 711.63 214.761 715.21C206.391 737.76 226.036 769.77 236.869 780.49C256.115 799.53 269.021 813.15 275.676 828.2C277.656 832.68 280.961 837.75 281.689 838.75C292.388 853.54 266.525 789.06 266.969 763.52C267.174 751.7 267.413 742.55 267.885 741.53C278.834 718.02 258.988 786.92 255.512 802.11C254.761 805.39 253.338 807.88 254.319 810.3C261.133 827.04 296.284 843.51 313.988 856.61C316.899 858.77 318.974 860.65 318.811 860.22C314.864 849.78 299.523 840.09 286.311 826.35C279.999 819.79 273.099 815.69 268.855 813.64C257.668 808.24 263.061 843.54 263.933 858.25C264.449 866.94 275.843 874.51 286.16 878.29C304.981 885.2 272.523 832.83 272.655 835.74C274.693 880.77 305.791 902.74 317.75 908.84C332.017 916.12 339.455 929.52 347.565 940.85C355.697 952.21 357.431 974.98 361.758 998.69C364.294 1012.58 371.391 1023.89 382.118 1044.45C390.97 1061.42 393.994 1074.89 397.99 1089.92C401.441 1102.91 411.478 1112.59 419.143 1128.83C422.154 1135.2 422.604 1141.39 421.431 1145.84C417.076 1162.38 383.888 1105.97 378.608 1086.61C377.723 1083.37 380.355 1080.84 382.024 1082.19C396.852 1094.15 387.092 1156.17 388.325 1188.37C388.899 1203.37 397.714 1219.28 403.062 1233.05C407.667 1244.91 405.327 1258.54 401.731 1270.98C400.851 1274.02 400.528 1276.85 399.984 1276.09C384.69 1254.75 400.557 1209.81 407.741 1179.06C409.329 1172.25 409.426 1169.16 410.307 1169.41C424.08 1173.38 418.294 1204.47 416.999 1218.95C416.615 1223.25 413.115 1220.63 411.673 1217.83C410.232 1215.04 410.016 1211.97 408.07 1210.28C406.125 1208.59 402.457 1208.37 400.912 1206.72C399.368 1205.07 400.058 1201.99 401.73 1199.86C403.402 1197.73 406.035 1196.63 408.488 1197.14C413.135 1199.82 416.492 1205.06 418.703 1211.36C419.816 1214.65 420.913 1218.1 423.373 1224.93" stroke="#FFCD00" stroke-width="58" stroke-linecap="round"/>
<path d="M426.85 1281.15C428.392 1285.69 430.613 1308.23 430.625 1332.83C430.635 1353.32 431.316 1367.18 430.763 1396.98C430.116 1431.88 437.521 1463.31 438.968 1484.75C440.005 1500.13 441.973 1513.43 443.632 1533.25C444.179 1539.78 443.971 1547.99 444.52 1550.24C445.082 1552.54 449.05 1540.72 452.367 1533C455.778 1525.05 464.273 1475.27 475.788 1400.85C485.023 1341.16 474.482 1300.56 468.339 1275.07C462.718 1251.75 455.506 1232.94 433.198 1210.43C430.028 1207.24 428.225 1214.13 428.111 1218.41C427.905 1226.15 434.149 1246.31 444.644 1283.03C466.02 1357.82 464.975 1386.54 467.315 1403.01C469.541 1418.68 480.264 1458.48 494.996 1506.08C504.115 1535.55 509.495 1556.29 517.034 1571.86C524.637 1587.57 559.454 1581.06 577.634 1579.52C581.033 1579.23 583.612 1577.97 582.81 1578.6C568.033 1590.09 522.713 1578.98 503.312 1573.91C501.475 1573.43 500.482 1577.64 500.917 1581.35C501.893 1589.67 507.555 1596.2 513.175 1600.98C532.205 1617.17 558.596 1618.23 564.453 1616.46C567.597 1615.51 570.529 1612.94 571.251 1610.17C571.974 1607.39 570.255 1604.1 567.751 1601.64C555.35 1589.44 534.102 1585.01 511.248 1576.15C497.232 1570.71 492.213 1556.04 485.687 1545.85C484.509 1544.01 480.914 1548.9 479.799 1551.85C478.685 1554.81 479.124 1557.62 480.556 1560.25C483.574 1565.79 493.866 1570.07 512.906 1575.25C541.48 1583.02 587.81 1585.85 640.362 1590C706.37 1595.21 713.426 1605.35 715.151 1608.18C715.984 1609.54 709.715 1610.57 676.5 1604.9C643.285 1599.22 581.52 1586.76 547.328 1579.57C513.136 1572.39 508.389 1570.85 550.589 1575.49C592.79 1580.14 682.082 1591 731.03 1596.6C785.804 1602.87 804.818 1603.5 828.573 1606.21C864.299 1610.3 919.356 1609.59 948.598 1608.99C961.239 1608.73 975.565 1603.55 1036.42 1603.69C1090.94 1603.81 1193.46 1606.75 1247.59 1607.37C1304.35 1608.02 1309.91 1604.45 1327.39 1601.03C1341.89 1598.19 1368.33 1596.08 1398.98 1595.19C1463.8 1593.29 1506.03 1595.73 1507.54 1595.34C1530.46 1589.34 1456.66 1601.06 1429.13 1605.07C1410.25 1607.82 1381.31 1611.32 1355.54 1612.05C1329.77 1612.78 1308.03 1610.46 1278.56 1609.37C1249.09 1608.28 1212.55 1608.49 1184.23 1610.33C1111.65 1615.03 1097.15 1629.61 1081.27 1632.13C1073.77 1633.33 1061.38 1632.68 1057.02 1631.69C1053.89 1630.98 1093.84 1622.82 1168.42 1613.73C1209.93 1608.67 1258.57 1600.27 1301.27 1594.79C1343.97 1589.32 1379.16 1586.39 1413.58 1585.25C1447.99 1584.1 1480.56 1584.81 1499.85 1584.85C1519.15 1584.89 1524.18 1584.23 1554.51 1583.96C1584.84 1583.69 1640.32 1583.83 1663.4 1583.9C1675.47 1583.93 1638.07 1585.47 1600.24 1588.41C1588.41 1589.32 1591.76 1591.13 1639.41 1591.9C1687.07 1592.67 1778.98 1592.88 1846.17 1594.14C1953.11 1596.13 1990.95 1600.25 1984.32 1601.12C1980.69 1601.59 1976.61 1602.85 1980.17 1604.08C1994.45 1609.06 2050.2 1607.81 2118.33 1607.25C2160.24 1606.91 2184.56 1606.75 2199.45 1609.56C2201.65 1609.97 2198.93 1614.1 2199.04 1613.67C2209.41 1572.96 2286.73 1537.4 2294.95 1526.42C2308.68 1508.06 2324.63 1491.1 2344.65 1469.3C2358.74 1453.96 2357.9 1427.98 2355.84 1407.62C2355.26 1401.83 2355.08 1395.91 2354.64 1390.56C2354.21 1385.2 2353.56 1380.6 2348.15 1388.04C2329.81 1413.3 2320.86 1438.13 2319.67 1440.08C2309.06 1457.41 2326.45 1385.53 2325.14 1358.11C2323.3 1319.44 2326.9 1282.23 2329.68 1261.1C2333.99 1228.23 2334.64 1201.64 2338.39 1186.27C2339.22 1182.87 2341.26 1180.63 2341.08 1181.21C2339.71 1185.73 2335.11 1220.22 2330.19 1276.18C2326.39 1319.47 2313.2 1350.86 2303.74 1375.45C2290.31 1410.3 2288.7 1435.91 2281.53 1448.17C2278.56 1453.26 2275.54 1465.99 2272.61 1478.84C2272.05 1481.3 2279.59 1472 2283.46 1468.17C2287.96 1463.71 2291.56 1479.85 2291.93 1484.75C2292.29 1489.47 2281.43 1493.14 2254.63 1509.8C2193.98 1547.5 2148.83 1568.94 2141.88 1571.33C2137.58 1572.81 2131.48 1574.15 2130.13 1574.27C2127.68 1574.49 2152.21 1561.41 2178.05 1544.79C2190.09 1537.05 2208.85 1510.45 2239.68 1459.84C2271 1408.45 2276.78 1366.39 2279.33 1350.34C2282.85 1328.15 2292.08 1282.83 2303.06 1244.24C2308.38 1225.52 2310.38 1212.1 2314.8 1207.57C2323.77 1198.38 2343.28 1181.85 2358.95 1168.36C2378.42 1151.6 2392.48 1148.08 2463.51 1128.71C2492.81 1120.72 2511.4 1097.48 2528.22 1079C2534.87 1071.69 2548.15 1062.98 2552.63 1058.47C2557.12 1053.97 2553.25 1054.8 2547.48 1057.28C2533.83 1063.14 2503.08 1078.51 2462.26 1097.94C2444.76 1106.95 2433.75 1114.21 2417.62 1120.18C2401.48 1126.16 2380.55 1130.62 2357.02 1136.52" stroke="#FFCD00" stroke-width="58" stroke-linecap="round"/>
<path d="M1209.48 439.93C1213.2 441.45 1247.93 436.16 1338.35 420.31C1401.25 409.29 1500.12 401.13 1567.85 395.4C1669.39 386.81 1703.05 385.25 1697.77 379.62C1694.56 376.18 1687.95 374.21 1639.31 363.51C1590.67 352.82 1499.62 334.13 1442.45 324.042C1385.27 313.955 1364.74 313.034 1355.59 311.353C1346.44 309.672 1349.29 307.259 1353.71 304.809C1358.12 302.36 1364.02 299.946 1426 287.655C1487.98 275.364 1605.87 253.267 1672.11 241.593C1749.16 228.014 1765.77 229.167 1771.99 228.942C1773.36 228.892 1770.4 226.526 1702.94 219.749C1635.48 212.972 1503.43 201.229 1556.39 194.785C1609.35 188.34 1851.33 187.549 1978.81 187.573C2106.3 187.597 2111.97 188.46 2113.49 189.983C2132.9 209.407 2026.89 209.289 2014.66 217.54C1997.38 229.197 2064.12 246.966 2087.57 251.464C2105.39 254.881 2122.4 249.918 2121.72 247.288C2120.1 241.041 2097.66 242.05 2022.9 238.025C1948.13 234 1817.06 229.313 1721.3 230.51C1625.54 231.707 1569.07 238.929 1537.6 243.908C1506.13 248.886 1501.39 251.404 1499.16 254.967C1496.94 258.529 1497.39 263.061 1499.91 267.121C1513.86 289.637 1558.7 298.268 1609.64 308.655C1641.84 315.22 1688.17 317.276 1734.81 317.8C1781.44 318.323 1827.29 315.428 1855.98 312.486C1895.07 308.478 1908.15 302.334 1932.86 295.625C1994.98 278.759 2040.11 270.137 2046.25 267.456C2054.45 263.872 2096.71 258.995 2159.71 254.695C2184.72 252.988 2195.29 248.579 2202.09 247.951C2208.89 247.322 2211.52 249.671 2203.81 266.849C2181.1 317.48 2155.42 359.23 2148.89 377.83C2144.95 391.91 2143.11 404.81 2143.99 414.94C2145.37 418.17 2148.65 417.5 2152.04 416.82" stroke="#FFCD00" stroke-width="88" stroke-linecap="round"/>
<path d="M2381.72 1117.83C2381.72 1117.39 2382.59 1113.65 2385.02 1107.35C2387.19 1101.7 2429.55 1075.6 2488.91 1036.46C2509.95 1022.59 2511.72 1019.66 2511.33 1017.31C2510.94 1014.96 2508.14 1012.99 2504.64 1013.15C2496.64 1013.54 2475.75 1032.13 2399.47 1084.72C2341.29 1124.83 2239.47 1186.11 2185.4 1220.17C2114 1265.14 2097.84 1288.77 2092.69 1305.56C2090.26 1313.49 2083.46 1324.3 2075.4 1337.14C2071.94 1342.65 2071.23 1346.96 2100.15 1313.42C2129.08 1279.89 2188.04 1208.6 2227.34 1163.45C2266.64 1118.31 2284.48 1101.47 2273.57 1129.71C2262.65 1157.94 2222.43 1231.77 2198.28 1274.55C2159.34 1343.53 2142.36 1356.38 2138.41 1369.36C2136.67 1375.09 2162.65 1349.09 2201.98 1298.79C2226.98 1266.82 2235.69 1245.36 2241.09 1231.99C2243.5 1226.03 2244.19 1221.36 2222.19 1269.9C2200.18 1318.44 2155.18 1420.23 2130.49 1474.28C2105.8 1528.33 2102.78 1531.57 2099.93 1534.1C2097.08 1536.63 2094.49 1538.36 2093.71 1536.73C2084.06 1516.49 2119.14 1485.35 2152.29 1454.17C2162.9 1444.18 2177.69 1435.73 2183.59 1433.46C2189.49 1431.2 2186.9 1436.37 2184.24 1441.09C2166.55 1472.42 2117.8 1509.07 2097.29 1519.04C2084.47 1525.28 2070.59 1517.68 2050.34 1512.79C2040.73 1510.47 2031.99 1511 1965.41 1509.74C1902.71 1508.56 1781.31 1505.98 1717.27 1505.01C1642.31 1503.88 1622.34 1514.27 1593.37 1516.91C1576.7 1518.43 1546.72 1517.13 1508.56 1520.24C1470.39 1523.34 1424.89 1529.56 1384.63 1533.12C1344.38 1536.68 1310.77 1537.4 1291.08 1538.2C1271.39 1539.01 1266.65 1539.87 1213.47 1541.14C1160.29 1542.42 1058.82 1544.08 999.125 1545.69C939.433 1547.3 924.594 1548.81 892.616 1549.73C860.638 1550.65 811.972 1550.93 784.959 1551.4C739.665 1552.18 712.199 1552.96 682.95 1545.08C640.263 1533.58 601.691 1530.62 590.117 1520.64C584.334 1515.65 576.162 1514.4 569.414 1512.53C553.871 1508.22 546.266 1459.47 538.84 1419.93C532.8 1387.77 529.043 1360.97 527.316 1340.53C524.495 1307.13 518.58 1280.79 517.501 1264.06C514.015 1209.99 495.72 1177.17 490.486 1161.59C481.969 1136.23 471.957 1114.99 464.121 1096.72C453.782 1072.63 440.348 1039.93 436.314 1027.75C432.38 1015.86 428.369 1002.96 423.89 988.97C420.098 977.13 412.911 960.44 400.941 931.95C386.762 898.21 373.056 858.66 360.641 831.02C350.911 809.35 342.067 793.95 318.256 727.23C299.676 675.17 305.214 637.06 298.789 620.39C293.432 606.49 286.473 595.8 280.585 581.95C267.411 550.96 246.625 493.02 239.605 465.89C232.822 439.68 228.695 409.68 221.633 355.56C215.07 305.269 216.918 267.217 218.456 255.701C219.395 248.671 249.108 250.527 291.713 248.154C360.063 244.346 389.053 232.872 427.915 231.464C476.822 229.693 512.296 223.118 504.454 222.543C465.121 219.662 431.64 226.129 422.286 226.346C388.971 227.12 342.907 216.615 337.254 213.185C334.519 211.526 331.601 210.851 354.93 207.103C378.259 203.355 427.807 196.763 677.38 184.421C926.954 172.078 1375.05 154.186 1613.92 143.516C1852.78 132.846 1868.84 129.94 1884.93 127.903C1901.03 125.867 1916.68 124.788 1923.34 125.527C1930 126.266 1927.2 128.855 1922.51 131.592C1911.76 137.878 1893.9 142.901 1870.11 149.922C1857.02 153.784 1842.22 159.388 1638.39 192.295C1434.57 225.202 1042.26 285.532 833.144 316.61C624.032 347.69 610.006 347.68 593.502 345.89C535.889 339.63 526.065 335.06 522.48 332.09C520.98 330.84 528.25 327.57 555.921 320.63C583.593 313.688 633.522 302.518 710.548 295.089C787.574 287.66 890.184 284.312 817.123 292.265C744.063 300.218 492.223 319.574 360.221 330.09C228.22 340.6 223.688 341.67 219.951 342.66C216.214 343.65 213.409 344.51 213.499 347.01C213.765 354.32 231.885 372.07 261.745 411.8C280.425 436.66 302.726 473.6 319.617 504.77C336.508 535.95 346.409 560.88 355.385 581.19C364.36 601.51 372.111 616.45 389.703 661.81C407.296 707.16 434.496 782.48 455.362 847.69C476.229 912.9 489.939 965.72 497.659 996.6C510.213 1046.8 514.687 1061.71 540.797 1118.61C556.676 1153.21 573.423 1175.25 580.811 1191.12C588.999 1208.7 592.915 1221.73 600.969 1246.04C621.239 1307.24 632.754 1352.28 633.747 1361.61C636.662 1388.96 630.63 1401.74 633.602 1414.71C635.14 1421.43 642.121 1426.83 649.068 1432.59C652.628 1435.55 657.528 1436.85 673.805 1439.25C690.082 1441.65 717.911 1444.67 853.49 1447.91C989.069 1451.15 1231.55 1454.51 1369.56 1454.84C1507.56 1455.16 1533.72 1452.35 1571.11 1449.59C1608.5 1446.84 1656.32 1444.22 1707.88 1443.34C1759.44 1442.46 1813.29 1443.4 1843.1 1443.59C1877.04 1443.81 1888.49 1440.77 1916.11 1436.47C1969.62 1428.14 2007.51 1426.9 2022.63 1425.57C2034.65 1424.51 2055.62 1425.12 2065.88 1423.47C2076.14 1421.82 2075.08 1418.52 2073.88 1415.51C2069.24 1403.78 2072.26 1377.73 2083.44 1342.1C2092.05 1314.64 2107.79 1294.04 2121.96 1275.52C2144.73 1245.77 2170.04 1223.03 2185.04 1211.4C2207.8 1193.75 2245.85 1170.96 2261.9 1146.73C2272.15 1131.26 2275.42 1114.94 2279.86 1098.09C2284.3 1081.26 2317.76 1043.43 2353.47 1008.41C2378.99 983.38 2435.23 972.61 2443.9 962.64C2456.35 948.32 2471.72 894.92 2477.49 862.6C2479.92 849.03 2472.17 833.16 2467.25 817.54C2462.34 801.96 2439.51 771.6 2408.23 730.56C2374.14 685.84 2362.66 663.83 2338.57 644.73C2317.42 627.96 2293.33 600.23 2250.82 559.91C2233.78 543.74 2223.5 517.48 2214.01 496.97C2204.22 475.81 2202.05 446.15 2197.37 417.52C2193.88 396.12 2181.15 379.67 2161.8 353.36C2148.16 334.83 2138.85 327.57 2132.99 325.344C2129.89 324.169 2125.83 325.735 2088.28 336.93C2050.73 348.13 1979.63 369.64 1904.63 386.4C1829.62 403.17 1752.87 414.55 1705.58 420.69C1658.3 426.84 1642.81 427.42 1629.66 426.95C1616.5 426.48 1606.14 424.95 1440.44 426.05C1274.74 427.15 954.012 430.93 623.563 434.82" stroke="#FFCD00" stroke-width="138" stroke-linecap="round"/>
<path d="M1298.94 817.99C1298.51 817.56 1298.73 813.61 1301.07 806.3C1303.72 798.02 1318.7 789.07 1393.27 752.53C1457.95 720.83 1580.92 670.46 1662.61 638.43C1744.3 606.39 1781.94 596.28 1802.86 591.07C1823.79 585.86 1826.84 585.85 1828.64 588.12C1838.95 601.14 1827.5 627.57 1811.26 659.82C1791.83 698.4 1732.8 706.49 1691.44 716.77C1668.7 722.43 1641.49 724.96 1609.79 727.05C1578.1 729.15 1542.5 729.7 1490.58 725.75C1438.66 721.8 1371.5 713.34 1324.83 705.61C1278.16 697.88 1254.03 691.13 1233.88 683.38C1168.92 658.37 1150.54 627.32 1145.93 615.74C1143.55 609.76 1144.27 602.56 1147.55 595.28C1154.81 579.13 1181.59 563.47 1217.22 545.58C1235.2 536.55 1254.2 530.16 1306.62 518.46C1359.05 506.77 1444.64 490.61 1494.05 482.08C1543.45 473.55 1554.08 473.13 1560.86 473.49C1567.64 473.84 1570.25 475 1569.95 478.5C1567.95 501.35 1529.73 512.93 1481.05 528.8C1466.45 533.55 1449.3 534.97 1427.34 536.8C1405.39 538.63 1378.81 539.54 1329.52 534.8C1280.24 530.07 1209.06 519.65 1121.4 497.97C1033.75 476.3 931.785 443.67 873.615 423.82C803.442 399.87 790.013 388.31 787.073 382.04C785.787 379.3 788.398 376.42 794.622 372.8C800.847 369.18 811.496 364.64 841.532 358.15C871.567 351.67 920.665 343.38 1000.08 338.53C1079.49 333.68 1187.74 332.52 1250.96 333.34C1314.18 334.17 1329.11 337 1335.83 340.29C1342.56 343.59 1340.63 347.26 1337.8 350.12C1332.12 355.86 1304.8 363.01 1229.72 375.48C1177.68 384.12 1096.04 388.37 1111.53 386.67C1127.03 384.97 1241.79 374.87 1304.14 370C1366.5 365.12 1372.96 365.77 1377.16 367.72C1381.37 369.67 1383.12 372.91 1381.97 376.27C1374.63 397.78 1329.71 402.86 1274.61 414.26C1236.77 422.09 1177.59 427.17 1005.12 428.27C832.649 429.36 548.358 424.56 402.689 420.66C257.021 416.76 258.589 413.9 261.38 412.43C264.171 410.96 268.138 410.95 311.88 424.25C355.623 437.56 439.02 464.17 497.827 479.99C556.633 495.8 588.322 500.01 607.807 502.18C627.292 504.35 633.615 504.35 635.362 505.65C648.694 515.53 597.077 531.48 528.3 552.1C507.781 558.25 487.913 560.98 479.783 561.89C471.653 562.81 475.587 560.83 514.136 553.96C552.685 547.09 625.728 535.4 661.958 530.35C698.187 525.29 695.389 527.23 676.944 531.36C624.764 543.04 585.568 549.28 581.431 551.23C580.604 551.63 584.673 552.76 680.792 551.61C776.912 550.45 965.548 547.47 1068.96 546.51C1172.38 545.54 1184.85 546.68 1188.37 549.74C1191.89 552.81 1186.08 557.77 1161.94 567.46C1137.8 577.15 1095.5 591.42 1034.33 605.88C973.162 620.34 894.404 634.55 803.406 646.44C712.408 658.33 611.557 667.46 563.851 669.83C516.144 672.2 524.639 667.53 558.377 656.13C592.114 644.73 650.836 626.73 687.658 616.52C724.48 606.3 737.621 604.42 743.652 605.49C749.683 606.57 748.204 610.67 744.206 614.44C735.007 623.1 694.981 636.13 642.917 654.73C622.854 661.9 616.031 665.36 613.137 669.3C610.243 673.23 611.571 677.76 613.675 681.61C626.749 705.5 665.832 722 722.939 738.84C756.089 748.61 787.793 747.18 814.911 746.99C866.214 746.61 902.426 731.54 913.377 722.84C915.344 721.27 913.101 717.54 909.422 714.54C889.307 698.11 852.501 701.66 801.792 707.3C770.01 710.84 726.937 722.86 688.459 734.09C649.981 745.32 617.656 757.22 589.409 769.13C537.311 791.09 505.232 812.02 490.713 825.88C480.73 835.41 480.297 846.19 480.738 853.48C481.136 860.05 488.972 866.43 498.444 873.77C508.173 881.31 550.983 896.03 611.582 916.17C635.535 924.13 646.272 925.68 652.933 925.72C659.594 925.77 662.004 923.8 660.152 913.76C648.414 850.12 613.064 816.81 599.297 808.57C596.596 806.96 593.421 808.31 592.632 811.77C590.42 821.46 608.366 866.81 630.71 930.24C648.559 980.9 647.43 998 656.219 1047.38C664.188 1092.15 682.282 1176.38 691.658 1221.36C701.034 1266.33 701.912 1269.35 704.229 1269.48C718.819 1270.28 724.488 1248.14 733.47 1239.02C735.703 1236.76 739.752 1236.37 742.438 1237.1C747.788 1238.55 750.294 1247.83 756.595 1279.55C761.928 1306.4 769.016 1355.58 773.208 1385.01C778.57 1422.65 777.822 1434.55 777.206 1436C776.504 1437.66 777.097 1427.31 771.687 1387.53C766.278 1347.75 755.381 1275.3 752.212 1177.16C749.044 1079.02 753.935 957.37 757.982 886.33C762.028 815.29 765.082 798.53 771.844 778.29C786.648 733.99 802.881 707.23 808.935 700.85C813.574 695.96 815.707 740.06 816.068 833.99C816.256 882.94 821.079 934.43 822.656 968.75C824.946 1018.59 822.228 1038.56 822.638 1041.82C822.799 1043.1 826.767 1035.96 868.303 986.71C909.838 937.45 989.819 844.35 1033.09 794.5C1076.36 744.65 1080.5 740.87 1063.39 766.79C1046.29 792.7 1007.81 848.43 960.978 943.02C914.142 1037.62 860.105 1169.39 830.938 1239.1C801.77 1308.82 799.109 1312.48 796.731 1309.76C794.353 1307.03 792.339 1297.8 794.599 1258.44C796.86 1219.08 803.455 1149.87 810.329 1099.69C817.203 1049.52 824.155 1020.48 833.829 991C843.502 961.52 855.687 932.48 872.638 900.87C889.589 869.27 910.938 835.99 932.11 807.37C953.282 778.75 973.63 755.8 992.212 737.52C1050.95 679.7 1087.2 670.88 1094.02 670.51C1100.08 670.18 1098.51 689.68 1079.3 787.62C1062.1 875.25 1023.32 1038.56 998.122 1134C972.925 1229.43 960.834 1251.7 952.591 1265.08C944.348 1278.46 940.32 1282.27 937.598 1280.97C929.656 1277.17 937.616 1222.13 949.634 1143.37C954.932 1108.64 964.047 1085.52 974.208 1061.91C984.368 1038.31 996.69 1015.17 1013.25 989.92C1029.82 964.68 1050.25 938.03 1074.38 912C1098.5 885.97 1125.69 861.35 1150.58 842.33C1195.41 808.08 1229.49 794.35 1245.2 791.34C1250.99 790.23 1252.77 795.2 1251.73 802.81C1250.69 810.43 1246.88 821.88 1217.79 878.05C1188.69 934.22 1134.44 1034.76 1080.71 1119.87C1026.98 1204.98 975.421 1271.6 939.195 1315.17C885.944 1379.22 856.644 1401.49 844.399 1410.15C839.334 1413.73 836.217 1415.1 833.762 1413.38C827.248 1408.81 828.947 1391.64 843.563 1340.07C855.502 1297.94 882.206 1225.11 902.111 1173.42C922.016 1121.73 935.74 1093.83 953.538 1065.36C971.336 1036.9 992.793 1008.72 1015.36 984.31C1037.92 959.91 1060.94 940.12 1082.84 924.48C1123.24 895.63 1159.03 882.85 1180.98 879.41C1189.3 878.11 1192.22 884.84 1180.66 926.89C1169.09 968.94 1143.04 1047.93 1120.44 1108.69C1097.85 1169.45 1079.49 1209.61 1058.44 1248.52C1037.38 1287.44 1014.17 1323.9 988.718 1357.64C963.267 1391.37 936.276 1421.27 902.603 1451.35C868.931 1481.43 829.395 1510.79 815.829 1511.1C802.263 1511.42 815.865 1481.81 830.63 1453.68C845.394 1425.54 860.909 1399.78 896.326 1354.32C931.743 1308.86 986.593 1244.48 1033.62 1196.14C1080.65 1147.8 1118.2 1117.43 1161.35 1086.6C1204.5 1055.76 1252.11 1025.37 1297.05 999.4C1341.99 973.43 1382.82 952.8 1426.7 935C1470.57 917.21 1516.27 902.87 1540.1 897.53C1563.94 892.19 1564.53 896.29 1562.57 904.75C1560.62 913.21 1556.09 925.91 1526.75 982.83C1497.4 1039.76 1443.37 1140.52 1402.49 1211.73C1361.62 1282.94 1335.53 1321.53 1305.76 1359.18C1275.98 1396.83 1243.29 1432.38 1203.68 1467.47C1164.07 1502.56 1118.51 1536.12 1091 1555.7C1063.48 1575.28 1055.38 1579.87 1050.55 1580.38C1045.73 1580.89 1044.44 1577.19 1044.77 1569.76C1045.11 1562.32 1047.12 1551.27 1055.68 1524.45C1064.25 1497.63 1079.32 1455.39 1095.55 1417.59C1111.78 1379.78 1128.72 1347.69 1147.4 1316.6C1166.09 1285.51 1185.99 1256.38 1212.13 1225.74C1238.28 1195.1 1270.05 1163.83 1305.71 1133.79C1341.37 1103.76 1379.96 1075.92 1417.67 1052.16C1455.38 1028.4 1491.05 1009.57 1522.32 995.65C1578.32 970.72 1613.89 962.87 1626.22 962C1630.7 961.68 1631.3 966.29 1617.88 992.01C1604.47 1017.72 1576.94 1065.59 1552.71 1101.09C1528.49 1136.6 1508.4 1158.29 1484.26 1180.02C1460.13 1201.75 1432.55 1222.86 1409.86 1238.55C1345.88 1282.78 1306.3 1290.38 1287.82 1292.07C1284.51 1292.37 1281.83 1288.92 1280.06 1286.05C1278.3 1283.17 1277.65 1279.68 1278.3 1276.03C1281.48 1258.18 1309.82 1244.04 1348.75 1225.34C1374.44 1213.01 1414.3 1199.58 1446.63 1189.56C1478.95 1179.55 1503.09 1174.55 1529.23 1170.72C1555.38 1166.9 1582.8 1164.4 1607.96 1164.16C1655.24 1163.71 1697.83 1175.57 1734.24 1192.25C1766.49 1207.02 1782.31 1236.68 1790.55 1261.21C1797.37 1281.51 1786.06 1298.51 1775.99 1311.39C1749.54 1345.17 1711.97 1353.28 1676.84 1357.6C1658.97 1359.8 1718.97 1334.62 1778.42 1322.62C1824.05 1313.42 1902.18 1303.84 1935.45 1300.69C1968.73 1297.53 1955.08 1302.61 1932.5 1307.82C1909.93 1313.02 1878.84 1318.19 1778.55 1322.25C1678.27 1326.31 1509.73 1329.1 1419.99 1331.22C1330.26 1333.35 1324.43 1334.71 1326.13 1337.2C1327.82 1339.69 1337.21 1343.26 1374.22 1346.67C1411.22 1350.09 1475.54 1353.24 1599.52 1342.03C1723.49 1330.81 1905.16 1305.14 2001.46 1291.11C2097.77 1277.08 2103.2 1275.48 2076.76 1282.71C2050.32 1289.94 1991.84 1306.06 1960.1 1314.36C1928.36 1322.66 1925.12 1322.66 1924.33 1321.46C1917.95 1311.76 1967.72 1293.2 2036.41 1260.37C2078.11 1240.44 2134.53 1215.64 2162.63 1201.1C2190.74 1186.57 2189.02 1183.49 2180.16 1180.41C2156.01 1172.02 2108.46 1172.79 2054.59 1176.72C2031.07 1178.44 2015.52 1182.3 2060.44 1153.57C2105.35 1124.83 2211.24 1064.07 2264.94 1033.95C2318.64 1003.83 2316.94 1006.2 2310.42 1012.45C2292.97 1029.18 2266.6 1048.83 2223.43 1073.48C2195.25 1089.57 2151.85 1108.43 2099.53 1127.25C2047.2 1146.08 1986.64 1163.15 1946.87 1173.3C1890.32 1187.73 1868.61 1188.96 1864.81 1185.6C1862.3 1183.37 1868.21 1175.52 1935.26 1123.76C2002.31 1072.01 2132.77 975.43 2207.07 921.48C2281.36 867.53 2295.54 859.15 2305.97 853.41C2322.39 844.37 2332.77 840.81 2338.07 841.2C2343.72 841.61 2310.54 881.91 2257.18 937.83C2232.52 963.68 2209.32 981.02 2186.35 996.85C2141.75 1027.59 2100.51 1044.8 2069.01 1055.06C2040.88 1064.22 2016.7 1065.99 2003.08 1065.55C1998.99 1065.42 2001.37 1061.03 2055 1022.84C2108.64 984.65 2213.65 911.65 2269.7 873.09C2325.76 834.54 2329.68 832.64 2294.23 852.21C2258.78 871.78 2183.85 912.87 2108.44 947.09C2033.03 981.3 1959.41 1007.39 1887.96 1026.32C1816.51 1045.25 1749.47 1056.22 1713.53 1061.66C1677.59 1067.09 1674.78 1066.66 1676.57 1062.58C1678.35 1058.51 1684.81 1050.81 1729.99 1018.5C1775.17 986.2 1858.87 929.51 1927.27 888.4C1995.66 847.29 2046.21 823.47 2081.04 808.23C2132.81 785.58 2163.02 778.65 2178.75 778.39C2183.45 778.31 2179.63 786.81 2156.17 808.81C2132.71 830.8 2089.26 868.2 2050.92 897.12C2012.57 926.03 1980.65 945.33 1939.42 965.16C1898.19 985 1848.61 1004.77 1821.67 1015.18C1794.73 1025.58 1791.93 1026.01 1790.49 1022.53C1786.29 1012.39 1791.11 998.59 1796.66 986.9C1799.74 980.41 1805.1 973.69 1834.79 945.39C1864.47 917.09 1918.76 867.64 1961.97 831.32C2005.17 795 2035.64 773.3 2063.11 755.45C2090.58 737.59 2114.11 724.25 2137.23 712.99C2160.36 701.72 2182.36 692.94 2207.41 685.67C2232.46 678.4 2259.89 672.92 2271.87 672.71C2283.86 672.51 2279.56 677.76 2241.55 698.47C2203.55 719.18 2131.97 755.18 2084.26 777.19C2036.56 799.21 2014.9 806.14 1973.92 813.26C1932.94 820.37 1873.29 827.45 1839.87 830.84C1806.44 834.23 1801.05 833.72 1796.33 831.45C1791.6 829.18 1787.72 825.17 1785.5 821.14C1776.63 805.03 1793.96 767.97 1815.05 727.8C1828.43 702.3 1853.27 680.22 1891.81 651.08C1917.59 631.59 1960.5 608.89 1986.47 594.64C2012.43 580.4 2021.29 576.92 1962.9 614.24C1904.5 651.57 1778.58 729.8 1682.22 781.44C1585.87 833.09 1522.89 855.76 1488.83 867.77C1454.78 879.77 1451.54 880.42 1449.66 879.11C1447.78 877.8 1447.36 874.52 1448.92 870.11C1450.48 865.7 1454.05 860.27 1505.99 813.68C1557.94 767.09 1658.17 679.52 1726.18 623.58C1794.19 567.64 1826.96 545.98 1850.94 531.5C1874.93 517.03 1889.14 510.39 1894.31 509.78C1910.86 507.81 1852.92 551.85 1793.8 579.83C1740.65 604.98 1683.09 588.29 1655.91 582.11C1651.46 581.09 1649.56 578.32 1647.91 574.25C1643.95 564.49 1645.88 552.83 1650.33 543.52C1654.65 534.47 1665.12 528.51 1676.71 522.1C1689.84 514.83 1727.26 506.55 1783.87 495.73C1835.43 485.86 1870.44 487.6 1887.92 489.2C1904.51 490.72 1914.65 499 1919.57 506.5C1925.23 515.13 1926.93 542.12 1927.95 580.65C1928.79 612.27 1919.78 640.45 1908.41 668C1896.65 696.51 1871.66 716.95 1846.9 734.19C1796.94 768.97 1760.01 774.62 1753.8 773.97C1751.15 773.69 1750.83 769.39 1751.37 765.2C1752.58 755.81 1760.4 743.04 1788.2 712.28C1809.91 688.25 1851.68 651.5 1901.3 612.08C1950.91 572.67 2008.3 532.82 2043.2 509.36C2088.17 479.14 2117.43 467.24 2147.24 456.33C2174.34 446.41 2184.7 445.54 2187.83 446.59C2194 448.66 2179.2 459.42 2173.87 465.62C2167.91 472.55 2150.21 515.4 2121.78 582.11C2109.57 610.75 2097.85 627.01 2086.78 642.12C2075.72 657.23 2064.64 670.22 2039.3 693.63C2013.95 717.05 1974.68 750.49 1934.85 778.66C1895.02 806.83 1855.81 828.72 1834.11 841.3C1802.59 859.55 1793.23 871.47 1775.41 886.21C1736.32 918.53 1684.97 918.1 1689.78 913.7C1696.57 907.48 1714.64 896.15 1740.47 882.55C1766.3 868.96 1799.97 854.21 1868.73 831.54C1937.49 808.88 2040.32 778.73 2095.79 762.18C2171.54 739.58 2194.52 725.1 2213.65 724.08C2244.04 722.47 2296.95 706.65 2334.01 689.13C2369.54 672.34 2385.64 670.4 2398.75 664.97C2404.28 662.21 2412.02 659.76 2418.67 659.39C2420.29 660.12 2418.36 662.71 2416.36 665.38" stroke="#FFCD00" stroke-width="188" stroke-linecap="round"/>
<path d="M522.572 1593.38C522.447 1593.25 522.322 1593.13 521.009 1592.55C519.696 1591.98 517.199 1590.96 522.309 1590.56C527.42 1590.16 540.215 1590.41 683.312 1591.53C826.41 1592.66 1099.42 1594.65 1250.26 1594.15C1401.09 1593.65 1421.48 1590.58 1481.52 1588.69C1541.57 1586.8 1640.65 1586.17 1700.23 1587C1759.81 1587.82 1776.88 1590.11 1809.06 1591.07C1841.24 1592.04 1888.01 1591.61 1927.69 1590.21C1967.37 1588.81 1998.56 1586.44 2029.19 1586.22C2089 1585.78 2128.11 1591.8 2143.7 1595.07C2166.3 1599.82 2186.46 1608.57 2192.92 1610.59C2203.37 1613.84 2215.5 1596.91 2237.32 1586.08C2252.88 1578.37 2263.17 1570.36 2275.93 1563.54C2286.57 1557.85 2296.88 1550.61 2307.6 1542.91C2320.29 1533.79 2330.34 1516.91 2337.13 1506.32C2346.44 1491.82 2349.06 1473.62 2349.85 1458.33C2350.7 1441.78 2346.59 1426.65 2340.61 1411.67C2336.21 1400.63 2323.31 1391.93 2310.67 1377.97C2300.45 1366.68 2291.24 1352.27 2273.95 1338.56C2240.57 1312.09 2217.39 1311.71 2202.64 1300.57C2191.6 1292.24 2187.84 1277.46 2185.56 1253.02C2181.13 1205.7 2179.66 1186.73 2189.16 1166.26C2202.08 1138.41 2218.31 1115.95 2227.57 1103.96C2236.31 1092.66 2262.8 1071.21 2307.41 1039.12C2330.28 1022.66 2357.05 1010.91 2379.8 997.7C2446.28 959.1 2455.75 948.26 2473.37 943.82C2494.25 938.56 2519.71 932.89 2536.95 928.77C2559.17 923.45 2576.72 915.08 2589.26 913.81C2608.97 911.82 2630.05 901.92 2646.42 896.74C2657.73 893.15 2662.71 910.39 2665.07 911.17C2665.39 911.27 2661.41 910.93 2594.43 911.27C2527.46 911.61 2396.97 912.67 2325.25 913.74C2253.54 914.82 2244.55 915.88 2235.11 917.37C2215.99 920.4 2169.93 926.94 2111.05 933.44C2088.4 935.73 2080.4 935.99 2074.23 936.21C2068.05 936.43 2063.92 936.61 2055.79 935.12" stroke="#FFCD00" stroke-width="165" stroke-linecap="round"/>
<path d="M1682.95 474C1682.95 505.73 1666.15 536.53 1632.55 566.4C1600.82 596.27 1565.35 624.27 1526.15 650.4C1486.95 674.67 1449.62 695.2 1414.15 712C1380.55 726.93 1360.95 735.33 1355.35 737.2C1332.95 746.53 1321.75 756.8 1321.75 768C1321.75 775.47 1329.22 780.13 1344.15 782C1360.95 782 1388.95 789.47 1428.15 804.4C1450.55 811.87 1474.82 822.13 1500.95 835.2C1527.09 846.4 1551.35 862.27 1573.75 882.8C1596.15 901.47 1614.82 925.73 1629.75 955.6C1644.69 983.6 1652.15 1018.13 1652.15 1059.2C1652.15 1102.13 1636.29 1143.2 1604.55 1182.4C1572.82 1221.6 1533.62 1256.13 1486.95 1286C1442.15 1315.87 1392.69 1340.13 1338.55 1358.8C1286.29 1375.6 1238.69 1384 1195.75 1384C1169.62 1384 1142.55 1382.13 1114.55 1378.4C1088.42 1372.8 1063.22 1365.33 1038.95 1356C1016.55 1346.67 997.886 1334.53 982.953 1319.6C968.02 1304.67 960.553 1286 960.553 1263.6C960.553 1252.4 964.286 1238.4 971.753 1221.6C981.086 1202.93 990.42 1188.93 999.753 1179.6C1022.15 1200.13 1047.35 1216 1075.35 1227.2C1105.22 1238.4 1142.55 1244 1187.35 1244C1217.22 1244 1250.82 1238.4 1288.15 1227.2C1327.35 1214.13 1363.75 1198.27 1397.35 1179.6C1430.95 1159.07 1458.95 1136.67 1481.35 1112.4C1503.75 1086.27 1514.95 1059.2 1514.95 1031.2C1514.95 992 1495.35 964 1456.15 947.2C1416.95 930.4 1374.02 916.4 1327.35 905.2C1280.69 892.13 1237.75 878.13 1198.55 863.2C1159.35 846.4 1139.75 818.4 1139.75 779.2C1139.75 753.07 1158.42 726.93 1195.75 700.8C1234.95 674.67 1277.89 649.47 1324.55 625.2C1371.22 600.93 1413.22 578.53 1450.55 558C1489.75 535.6 1509.35 515.07 1509.35 496.4C1509.35 483.33 1497.22 476.8 1472.95 476.8C1443.09 476.8 1410.42 481.47 1374.95 490.8C1339.49 500.13 1304.95 510.4 1271.35 521.6C1239.62 532.8 1209.75 543.07 1181.75 552.4C1155.62 561.73 1136.02 566.4 1122.95 566.4C1096.82 566.4 1079.09 561.73 1069.75 552.4C1062.29 543.07 1058.55 527.2 1058.55 504.8C1058.55 491.73 1067.89 479.6 1086.55 468.4C1105.22 455.33 1128.55 443.2 1156.55 432C1186.42 420.8 1218.15 411.47 1251.75 404C1287.22 394.67 1320.82 387.2 1352.55 381.6C1384.29 374.13 1412.29 368.53 1436.55 364.8C1462.69 361.07 1480.42 359.2 1489.75 359.2C1502.82 359.2 1519.62 361.07 1540.15 364.8C1562.55 366.67 1584.02 372.27 1604.55 381.6C1625.09 389.07 1642.82 400.27 1657.75 415.2C1674.55 430.13 1682.95 449.73 1682.95 474Z" fill="black"/>
<path d="M465.084 1695.46C465.061 1695.46 465.038 1695.46 461.487 1695.66C457.936 1695.85 450.858 1696.24 446.739 1696.32C442.621 1696.4 441.677 1696.17 438.165 1696C434.654 1695.82 428.603 1695.72 425.383 1695.57C421.367 1695.37 420.005 1693.92 417.939 1693.34C415.199 1692.58 413.206 1692.36 413.055 1691.73C412.711 1690.31 411.064 1685.76 409.241 1682.64C408.729 1681.76 407.591 1681.37 404.942 1680.78C399.289 1679.52 395.192 1679.43 394.578 1679.77C393.257 1680.49 392.681 1682.72 392.005 1687.46C391.656 1689.91 390.755 1691.77 389.831 1693.43C388.699 1695.46 383.815 1697.85 380.997 1699.03C379.352 1699.71 377.17 1698.75 373.856 1697.2C370.293 1695.52 369.068 1694.92 365.333 1689.59C362.97 1686.21 363.939 1683.26 364.902 1679.22C365.815 1675.39 366.013 1672.3 366.01 1670.18C366.006 1666.61 365.221 1662.53 364.257 1659.38C363.331 1656.36 362.054 1653.65 359.731 1649.35C358.29 1646.68 356.304 1643.22 354.606 1641.36C353.158 1639.77 349.746 1638.43 344.246 1636.54C340.81 1635.37 335.821 1634.52 332.856 1633.85C327.254 1632.57 325.328 1630.77 323.738 1628.99C321.171 1626.12 320.846 1622.36 320.661 1619.98C320.586 1619.01 321.391 1616.89 322.811 1613.21C324.603 1608.58 326.862 1605.64 328.145 1603.99C328.928 1602.98 330.102 1601.73 333.878 1598.25C337.655 1594.77 344.029 1589.13 347.821 1585.58C352.808 1580.91 353.973 1578.78 355.029 1576.75C357.008 1573.06 359.097 1568.84 360.512 1565.79C361.094 1564.65 361.398 1564.32 361.712 1563.99" stroke="black" stroke-width="70" stroke-linecap="round"/>
<path d="M365.191 1568.95C365.052 1568.17 365.053 1566.11 365.972 1563.28C367.308 1559.18 368.473 1555.07 368.957 1552.66C369.617 1549.37 369.749 1544.62 369.943 1541.45C370.331 1535.13 370.073 1530.42 370.156 1527.43C370.23 1524.79 370.186 1519.87 369.461 1511.6C368.736 1503.33 367.284 1491.86 366.333 1483.36C365.382 1474.87 364.975 1469.7 364.474 1465.47C363.973 1461.25 363.39 1458.12 362.982 1453.29C362.574 1448.46 362.359 1442.02 362.634 1435.03" stroke="black" stroke-width="70" stroke-linecap="round"/>
<path d="M368.035 1426C368.076 1425.04 367.752 1419.63 367.898 1401.3C367.948 1394.96 368.925 1391.1 369.344 1387.52C369.8 1383.62 369.808 1379.08 369.915 1372.95C370.064 1364.39 368.748 1356.34 367 1350.45C365.345 1344.87 363.669 1341.57 362.581 1339.14C360.594 1334.68 358.19 1329.77 355.496 1325.63C350.585 1318.08 348.036 1315.22 346.261 1312.43C344.445 1309.57 340.574 1305.62 337.766 1302.28C333.567 1297.29 329.932 1292.82 327.262 1287.49C325.474 1283.92 327.072 1278.14 328.833 1269.09C330.292 1261.59 330.265 1256.5 330.474 1255.37C330.696 1254.18 331.446 1246.3 332.725 1235.05C333.447 1228.7 333.46 1224.37 332.492 1220.79C332.061 1219.2 331.48 1217.91 330.781 1216.97C329.059 1214.64 323.907 1216.54 320.739 1217.21C318.055 1217.78 314.99 1213.67 312.28 1211.22C310.302 1209.43 306.9 1203.52 301.733 1191.34C297.133 1180.49 299.859 1172.34 299.868 1166.42C299.871 1164.48 298.596 1160.59 296.888 1155.77C296.253 1153.97 295.383 1153.8 294.515 1153.78C290.551 1153.68 286.848 1156.6 283.169 1159.86C280.528 1162.21 279.535 1164.9 278.025 1167.41C277.397 1168.46 276.521 1169.34 275.101 1169.87C272.374 1170.9 269.227 1168.26 266.95 1166.58C264.283 1164.61 263.194 1161.29 262.776 1156.91C262.134 1150.19 265.918 1140.81 266.045 1133.28C265.916 1131.58 265.657 1129.95 265.401 1128.65C265.145 1127.36 264.9 1126.47 264.4 1125.3" stroke="black" stroke-width="70" stroke-linecap="round"/>
<path d="M261.253 1118.4C260.93 1115.66 260.057 1102.44 260.773 1093.85C261.246 1088.19 263.806 1081.8 268.949 1075.14C273.175 1069.67 277.199 1064.4 280.64 1057.88C283.57 1052.32 283.417 1045.05 283.915 1036.36C284.723 1022.25 280.508 1011.62 276.919 1002.75C273.724 994.86 267.145 984.76 260.431 973.89C249.98 956.96 241.243 941.42 233.622 930.25C221.291 912.19 212.357 897.69 202.289 882.37C193.577 869.11 188.278 860.73 183.968 852.89C179.569 844.89 173.902 839.77 165.795 825.2C161.848 818.1 160.383 811.78 158.097 802.77C155.545 792.7 152.541 786.54 151.555 778.24C150.43 768.78 157.404 761.53 158.142 744.42C158.566 734.58 152.879 728.78 150.906 722.56C148.724 715.7 143.3 707.98 140.778 699.49C139.063 693.71 138.811 683.53 140.408 674.58C141.81 666.72 142.468 660.14 138.677 654.09C134.75 647.82 130.414 642.08 122.898 636.59C114.798 630.68 108.518 628.78 102.364 626.28C95.2057 623.38 88.9276 615.43 82.6449 604.28C79.2017 598.17 76.826 584.47 73.5964 575.31C71.2731 568.73 69.2985 562.04 66.7354 555.72C63.989 548.94 50.0745 540.26 43.7068 532.36C39.5063 527.15 41.4113 519.32 46.3273 499.64C50.8592 481.5 49.3865 468.69 51.039 465.71C55.6879 457.32 65.833 449.57 71.5633 442.45C77.74 434.78 81.2598 427.97 82.1551 416.11C82.1602 413.04 81.9446 410.56 81.6179 408.37C81.2912 406.17 80.8599 404.34 80.0943 401.8" stroke="black" stroke-width="70" stroke-linecap="round"/>
<path d="M72.4222 401.07C73.4121 399.42 76.2819 389.74 78.1736 377.99C79.6789 368.64 80.9389 362.061 83.4284 353.811C85.615 346.571 91.1229 339.05 93.6723 330.92C96.5418 321.756 89.3592 316.014 85.9516 310.158C83.1808 305.397 84 298.356 84.3847 292.717C85.0039 283.642 94.2707 277.757 97.6148 272.059C101.968 264.641 91.7911 253.337 82.9697 241.824C66.4578 220.275 52.3564 213.197 46.8407 207.107C42.6663 202.497 49.3224 194.709 51.2705 186.871C55.7319 168.922 50.4669 161.965 47.3231 157.579C46.5094 156.443 46.2297 154.989 46.8313 153.488C50.0615 145.427 59.7229 142.141 60.9535 135.942C62.3542 128.885 56.5449 115.17 49.9959 104.014C44.5801 94.7894 39.3073 91.9134 38.81 86.0974C38.2275 79.2854 34.7355 74.9704 35.0157 72.8134C35.1671 71.6484 38.0291 71.6425 69.5888 70.8755C101.148 70.1085 162.007 68.9134 194.69 68.1184C227.373 67.3234 230.036 66.9634 390.599 65.0954C551.162 63.2274 869.544 59.8625 1049.73 58.5055C1229.93 57.1495 1262.28 57.9034 1281.13 58.6704C1304.37 59.6144 1319.93 61.2205 1343.37 61.6555C1369.02 62.1315 1384.14 61.8385 1397.54 61.2865C1431.99 60.5165 1456.8 61.0345 1460 62.8285C1461.56 63.6515 1462.98 64.2984 1465.45 65.6184" stroke="black" stroke-width="70" stroke-linecap="round"/>
<path d="M1466.47 60.6628C1468.78 60.2248 1475.4 58.6768 1482.65 57.8428C1485.35 57.5318 1489.3 57.1287 1508.01 56.9567C1526.73 56.7847 1560.1 56.8928 1612.12 56.4348C1664.15 55.9778 1733.83 54.9518 1797.95 55.2128C1862.06 55.4738 1918.51 57.0538 1948.95 58.0648C1979.39 59.0758 1982.1 59.4718 2007.9 59.9058C2033.7 60.3408 2082.51 60.8018 2117.06 60.8208C2151.61 60.8398 2170.43 60.4007 2187.1 60.0657C2203.77 59.7297 2217.73 59.5108 2229.68 59.2338C2251.13 58.6278 2263.89 58.1788 2272.8 58.0668C2278.75 58.0638 2287.61 58.1718 2296.74 58.2828" stroke="black" stroke-width="70" stroke-linecap="round"/>
<path d="M2301.07 62.916C2300.42 66.034 2298.93 73.476 2300.1 80.299C2301.21 86.802 2304.88 92.169 2310.42 105.869C2314.37 115.631 2318.67 125.998 2321.12 131.706C2324.1 138.68 2327.58 148.815 2337.23 173.848C2343.07 189.022 2349.94 199.68 2356.49 213.222C2361.4 223.388 2364.48 228.467 2369.07 235.498C2374.52 243.872 2381.63 252.277 2387.52 258.951C2391.34 263.276 2390.56 275.631 2387.77 292.334C2386.57 299.488 2385.86 304.805 2385.11 309.983C2383.62 320.355 2376.61 331.77 2374.16 337.2C2372.2 341.54 2370.81 346.49 2368.25 352.16C2365.43 358.39 2363.03 367.83 2361.87 372.97C2360.88 377.37 2363.97 381.9 2367.11 386.28C2372.77 394.17 2377.41 406.86 2380.24 415.96C2382.65 423.75 2381.21 432.99 2379.73 439.5C2377.48 449.4 2376.92 459.55 2376.42 466.01C2375.88 472.98 2376.59 481.87 2379.44 489.49C2380.58 492.54 2384.97 495.37 2390.82 498.96C2396.6 502.52 2412.91 505.45 2434.68 509.17C2448.7 511.55 2466.15 515.42 2485.11 522.4C2493.17 525.37 2503.84 534.31 2518.58 547.21C2528.4 555.81 2535.36 567.34 2544.94 590.26C2548.72 599.32 2549 603.93 2550.97 609.56C2552.94 615.15 2557.97 622.27 2566.01 630.14C2577.17 641.09 2595.54 640.75 2608.02 643.32C2611.24 643.98 2601.95 649 2600.41 653.22C2598.23 659.22 2598.05 668.59 2598.6 674.35C2599.14 679.97 2606 686.85 2612.15 693.9C2622.99 706.32 2639.36 715.53 2649.44 721.87C2656.95 726.59 2661.46 731.79 2671.71 739.3C2679.99 745.37 2684.37 755.24 2692.74 766.85C2695.64 770.21 2697.59 772.37 2699.26 774.96C2700.11 776.57 2700.94 778.78 2700.81 779.55" stroke="black" stroke-width="70" stroke-linecap="round"/>
<path d="M2704.85 784.43C2706.28 787.06 2707.45 792.18 2709.67 798.91C2713.36 810.1 2720.36 816.72 2725.48 823.65C2730.14 829.97 2737.01 840.53 2742.16 847.97C2745.66 853.02 2749.39 857.03 2754.39 862.31C2765.37 873.94 2774.02 882.17 2776.74 891.06C2782.53 910.02 2781.25 915.85 2780.18 924.16C2779.44 929.85 2769.91 939.7 2763.56 948.56C2759.12 954.77 2758.18 960.76 2756.86 966.88C2755.55 972.92 2749.26 977.06 2746.07 980.5C2742.57 984.26 2740.98 989.55 2738.25 993.56C2734.22 999.49 2733.61 1003.86 2733.57 1012.43C2733.5 1027.57 2729.09 1033.12 2724.82 1046.66C2722.68 1053.42 2723.36 1061.97 2722.54 1069.99C2721.77 1077.5 2711.58 1080.86 2705.63 1083.23C2699.69 1085.6 2694.75 1088.63 2689.71 1095.82C2686.15 1100.89 2684 1105.17 2681.6 1109.02C2679.03 1113.13 2680.35 1118.9 2678.66 1126.38C2677.08 1133.36 2674.57 1137.18 2671.8 1141.44C2667.71 1147.74 2663.33 1151.65 2658.29 1156.37C2651.49 1162.74 2647.37 1165.64 2643.31 1168.08C2638.69 1170.87 2630.94 1176.13 2624.62 1179.54C2619.48 1182.31 2605.93 1183.98 2595.02 1186.03C2585.92 1187.74 2573.18 1187.56 2567.93 1188.59C2558.93 1190.36 2550.68 1193.51 2546.55 1196.81C2536.93 1204.49 2519.52 1212.02 2511.49 1215.84C2505.56 1218.66 2499.66 1221.22 2481.31 1222.21C2471.55 1222.74 2463.36 1220.66 2455.13 1222.45C2447.12 1224.18 2442.67 1227.19 2438.37 1229.51C2431.1 1233.43 2424.22 1237.37 2422.77 1239.39C2420.14 1243.06 2421.57 1248.44 2420.95 1253.37C2420.8 1254.57 2420.74 1255.64 2421.24 1256.31C2421.74 1256.98 2422.82 1257.23 2424.29 1256.94C2425.76 1256.65 2427.58 1255.81 2429.46 1254.96" stroke="black" stroke-width="70" stroke-linecap="round"/>
<path d="M2423.36 1251C2423.36 1252.97 2422.05 1261.7 2420.76 1269.95C2419.79 1276.13 2419.24 1285.44 2417.5 1291.34C2415.9 1296.74 2412.05 1301.34 2409.15 1306.31C2406.65 1310.59 2406.08 1315.41 2405.09 1319.67C2403.85 1324.98 2401.21 1331.78 2398.93 1336.37C2395.97 1342.34 2395.67 1347.98 2395.04 1354.56C2394.74 1357.68 2396.34 1360.65 2397.51 1363.38C2401.04 1371.57 2416.97 1373.64 2424.31 1377.32C2436.94 1383.64 2446.11 1402.53 2455.32 1414.84C2459.71 1420.71 2460.35 1428.28 2461.33 1437.95C2462.92 1453.61 2456.84 1458.82 2454.85 1463.09C2452.89 1467.28 2448.65 1471.06 2443.65 1477.76C2440.32 1482.22 2433.2 1487.4 2430.16 1493.92C2425.15 1504.64 2427.71 1516.61 2426.11 1523.95C2423.39 1536.33 2410.94 1555.73 2409.03 1561.99C2405.08 1574.9 2402 1590.48 2398.99 1596.51C2392.63 1609.26 2380.38 1615.12 2365.28 1622.2C2358.79 1625.24 2353.39 1628.78 2345.75 1630.75C2329.89 1634.84 2323.61 1635.33 2318.72 1636.49C2311.73 1638.14 2304.43 1645.89 2298.38 1649.71C2291.97 1653.76 2285.24 1656.65 2279.4 1660.51C2272.73 1664.91 2263.17 1672.6 2257.02 1676.68C2254.25 1678.51 2252.38 1681.23 2250.44 1683.17C2246.65 1686.95 2248.82 1693.87 2249.12 1699.95C2249.25 1702.64 2248.75 1705.7 2249.12 1708.96C2249.44 1711.71 2255.51 1715.2 2262.49 1720.57C2270.73 1726.9 2264.92 1735.88 2263.92 1742.04C2261.47 1757.15 2260.7 1770.36 2256.17 1780.07C2249.63 1794.11 2243.85 1800.39 2240.45 1806.26C2237.02 1812.17 2234.57 1820.07 2233.25 1824.93C2232.24 1828.66 2232.95 1812.27 2230.19 1806.01C2225.37 1795.07 2204.02 1793.89 2199.15 1791.91C2194.76 1790.13 2191.29 1786.58 2186.62 1782.72C2184.1 1781.04 2181.77 1779.6 2180.16 1778.05C2179.61 1777.17 2179.62 1776.08 2179.62 1774.97" stroke="black" stroke-width="70" stroke-linecap="round"/>
<path d="M2179.7 1771.06C2178.05 1769.89 2174.42 1766.53 2171.31 1762.2C2168.21 1757.88 2164.67 1752.09 2160.4 1747.11C2155.77 1741.71 2150.93 1738.36 2145.44 1733.62C2136.9 1726.24 2120.04 1721.33 2097.03 1714.52C2087.63 1711.74 2081.62 1711.62 2073.13 1709.82C2052.03 1705.36 2036.46 1703.12 2033.62 1703.08C2030.36 1703.03 2013.28 1700.7 1985.25 1697.08C1962.95 1694.19 1948.82 1694.04 1941.51 1693.62C1936.06 1693.31 1928.08 1692.11 1910.39 1691.27C1898.44 1690.7 1880.41 1691.09 1869.58 1691.17C1855.63 1691.28 1847.59 1691.78 1837.12 1692.23C1831.48 1692.48 1825.18 1692.16 1812.31 1692.08C1799.44 1691.99 1780.2 1691.99 1764.31 1691.91C1748.42 1691.82 1736.46 1691.66 1729.77 1691.65C1723.08 1691.65 1722.02 1691.81 1720.92 1691.98" stroke="black" stroke-width="70" stroke-linecap="round"/>
<path d="M1725.73 1688.2C1724.5 1688.39 1718.92 1689.04 1714.53 1689.53C1710.08 1690.03 1704.89 1691.06 1697.14 1692.1C1694.85 1692.41 1692.53 1692.75 1681.39 1693.18C1670.25 1693.6 1650.38 1694.12 1639.65 1694.42C1627.96 1694.74 1625.61 1694.91 1614.62 1694.7C1604.98 1694.52 1587.1 1693.82 1507.57 1693.63C1428.04 1693.44 1287.4 1693.7 1199.86 1692.98C1112.33 1692.26 1082.17 1690.56 1059.06 1689.68C1035.95 1688.79 1020.79 1688.77 1012.54 1688.83C1004.28 1688.89 1003.38 1689.04 950.701 1689.49C898.027 1689.93 793.608 1690.67 738.881 1690.95C684.154 1691.23 682.282 1691.03 680.866 1690.93C678.551 1690.77 676.583 1690.7 662.794 1690.5C650.038 1690.32 625.586 1690.43 612.41 1690.4C598.071 1690.36 595.584 1690.17 586.1 1690C577.907 1689.87 562.85 1689.79 554.48 1689.79C542.39 1689.79 535.258 1691.15 526.679 1692.14C508.203 1694.26 495.397 1692.26 487.718 1692.42C484.969 1692.52 478.357 1692.52 468.946 1692.46C465.15 1692.45 463.343 1692.52 462.88 1692.78" stroke="black" stroke-width="70" stroke-linecap="round"/>
<g filter="url(#filter0_d_50_95)">
<path d="M2202.29 1072.61C2204.34 1076.46 2208.02 1079.18 2212.3 1080.02L2262.72 1089.9L2227.32 1128.69C2224.47 1131.82 2223.12 1136.04 2223.64 1140.24L2230.11 1192.79L2184.13 1170.46L2183.76 1170.29C2179.97 1168.58 2175.63 1168.58 2171.84 1170.29L2171.47 1170.46L2125.48 1192.79L2131.96 1140.24C2132.48 1136.04 2131.13 1131.82 2128.28 1128.69L2092.88 1089.9L2143.3 1080.02C2147.58 1079.18 2151.26 1076.46 2153.31 1072.61L2177.8 1026.64L2202.29 1072.61Z" fill="white"/>
<path d="M2202.29 1072.61C2204.34 1076.46 2208.02 1079.18 2212.3 1080.02L2262.72 1089.9L2227.32 1128.69C2224.47 1131.82 2223.12 1136.04 2223.64 1140.24L2230.11 1192.79L2184.13 1170.46L2183.76 1170.29C2179.97 1168.58 2175.63 1168.58 2171.84 1170.29L2171.47 1170.46L2125.48 1192.79L2131.96 1140.24C2132.48 1136.04 2131.13 1131.82 2128.28 1128.69L2092.88 1089.9L2143.3 1080.02C2147.58 1079.18 2151.26 1076.46 2153.31 1072.61L2177.8 1026.64L2202.29 1072.61Z" stroke="black" stroke-width="17"/>
</g>
<path d="M1463.29 100.787C1463.31 100.787 1463.89 100.755 1466.37 100.495C1468.29 100.294 1471.53 99.8427 1473.1 99.6187C1474.68 99.3947 1474.5 99.3837 1471.61 99.5497C1468.73 99.7147 1463.15 100.057 1460.13 100.256C1456.81 100.475 1456.01 100.546 1455.34 100.53C1455.16 100.526 1455.3 100.483 1458.18 100.402C1461.07 100.321 1466.7 100.191 1470.52 99.9977C1474.33 99.8037 1476.17 99.5497 1476.98 99.3987C1477.79 99.2467 1477.52 99.2047 1472.99 99.3957C1468.46 99.5867 1459.68 100.012 1455 100.205C1450.33 100.398 1450.03 100.345 1455.23 100.114C1460.42 99.8837 1471.13 99.4767 1476.55 99.2437C1481.97 99.0117 1481.79 98.9657 1475.6 98.8167C1469.42 98.6677 1457.25 98.4167 1456.29 98.1817C1455.32 97.9457 1465.93 97.7348 1471.57 97.6028C1477.2 97.4708 1477.53 97.4247 1473.98 97.6187C1470.43 97.8127 1462.97 98.2477 1459.06 98.4817C1455.15 98.7167 1455.01 98.7367 1455 98.7477C1454.99 98.7587 1455.13 98.7587 1457.99 98.6907C1460.85 98.6237 1466.42 98.4897 1464.19 98.4997C1461.96 98.5107 1451.76 98.6698 1446.4 98.7798C1441.04 98.8888 1440.85 98.9447 1440.82 98.9837C1440.79 99.0217 1440.94 99.0427 1447.75 98.9247C1454.56 98.8067 1468.02 98.5487 1469.52 98.4137C1471.01 98.2787 1460.13 98.2747 1453.86 98.3407C1447.59 98.4057 1446.28 98.5407 1448.93 98.3877C1451.57 98.2347 1458.23 97.7897 1461.74 97.5447C1465.24 97.3007 1465.4 97.2687 1461.63 97.2427C1457.86 97.2157 1450.16 97.1957 1446.27 97.2057C1442.37 97.2157 1442.52 97.2577 1447.45 97.0957C1452.38 96.9347 1462.09 96.5697 1467.17 96.3707C1472.24 96.1717 1472.39 96.1507 1470.16 96.2037C1467.93 96.2567 1463.33 96.3857 1460.89 96.4667C1458.45 96.5487 1458.31 96.5797 1459.45 96.5257C1460.59 96.4707 1463 96.3307 1462.91 96.2827C1462.83 96.2347 1460.18 96.2827 1462.76 96.1617C1465.34 96.0397 1473.24 95.7467 1477.6 95.5307C1481.96 95.3147 1482.54 95.1847 1483.46 95.0547C1485.62 94.7487 1487.23 94.6567 1487.64 94.6307C1487.75 94.6227 1486.68 94.6547 1485.8 94.7587C1485.13 94.8397 1487.55 93.9177 1487.95 93.7477C1488.11 93.6797 1485.86 94.1107 1483.33 94.8387C1481.85 95.2637 1489.33 93.7867 1489.73 93.6057C1489.82 93.5677 1488.22 93.7577 1486.41 94.0347C1485.61 94.1577 1488.41 93.2637 1488.65 93.1517C1488.85 93.0577 1487.81 93.1767 1487.79 93.1127C1487.77 93.0497 1488.37 92.8917 1488.53 92.8517C1489.06 92.7287 1487.53 93.3557 1484.68 94.6097C1483.47 95.1397 1482.72 95.2317 1482.3 95.3987C1481.8 95.5977 1479.33 95.9618 1475.89 96.4648C1473.82 96.7668 1473.28 96.8758 1472.35 96.9908C1471.99 97.0348 1471.51 97.0947 1470.26 97.1377C1469.02 97.1797 1467.03 97.2007 1469.44 96.7047C1471.86 96.2087 1478.74 95.1957 1479.41 94.9837C1480.08 94.7727 1474.34 95.3927 1470.96 95.7907C1465.69 96.4087 1465.25 96.7127 1465.05 96.8067C1465.01 96.8257 1465.19 96.8797 1468.5 96.4507C1471.81 96.0207 1478.26 95.1287 1481.71 94.6227C1485.44 94.0757 1485.82 93.8497 1485.91 93.7787C1486.08 93.6407 1484.42 94.2928 1482.38 94.8788C1479.8 95.6198 1478.42 95.7457 1476.04 96.0837C1474.66 96.2787 1472.94 96.4457 1472.13 96.5627C1471.33 96.6787 1471.5 96.7207 1474.34 96.1687C1477.18 95.6157 1482.69 94.4688 1485.73 93.8138C1489.79 92.9428 1490.22 92.6797 1490.38 92.6787C1491.26 92.6717 1488.19 93.8427 1484.05 94.6277C1480.28 95.3407 1473.08 96.4647 1469.45 97.0777C1465.82 97.6917 1465.97 97.7017 1471.07 96.9117C1476.17 96.1217 1486.23 94.5307 1485.5 94.6307C1484.78 94.7297 1472.97 96.5677 1466.97 97.5457C1460.97 98.5227 1461.13 98.5857 1461.61 98.6327C1462.09 98.6807 1462.9 98.7117 1466.13 98.4687C1469.36 98.2257 1474.99 97.7077 1477.78 97.4407C1480.57 97.1737 1480.35 97.1727 1474.47 97.5237C1468.59 97.8737 1457.06 98.5758 1450.75 99.0038C1444.45 99.4318 1443.72 99.5657 1443.27 99.6657C1442.82 99.7657 1442.66 99.8277 1449.7 99.3907C1456.73 98.9537 1470.97 98.0158 1478.2 97.5638C1485.43 97.1118 1485.23 97.1737 1483.06 97.5157C1480.88 97.8587 1476.73 98.4797 1474.45 98.8067C1471.88 99.1747 1471.43 99.1857 1471.31 99.1857C1471.28 99.1857 1471.54 99.0877 1473.58 98.7117C1475.62 98.3347 1479.51 97.6587 1481.62 97.3107C1483.74 96.9627 1483.97 96.9627 1480.68 97.5937C1477.39 98.2247 1470.57 99.4867 1470.31 99.2757C1470.06 99.0647 1476.57 97.3418 1480.22 96.4128C1483.87 95.4838 1484.45 95.3997 1482.05 95.8037C1479.65 96.2077 1474.24 97.1008 1472.25 97.4258C1471.84 97.4928 1476.13 97.1257 1476.97 97.3227C1478.75 97.7377 1468.8 98.2277 1465.63 98.5107C1462.46 98.7937 1462.67 98.7088 1465.06 98.4128C1467.45 98.1168 1472.02 97.6117 1474.27 97.4137C1476.51 97.2157 1476.31 97.3397 1470.86 97.8497C1465.41 98.3597 1454.73 99.2507 1449.33 99.7457C1443.92 100.242 1444.11 100.315 1447.56 100.125C1451.01 99.9357 1457.71 99.4817 1461.29 99.2117C1465.13 98.9207 1465.56 98.7377 1466.87 98.5797C1470.07 98.1927 1472.39 98.1127 1472.96 97.9857C1474.77 97.5807 1475.52 97.3897 1477.66 96.9587C1478.16 96.8577 1478.43 96.7507 1475.69 97.3047C1472.94 97.8577 1467.17 99.0617 1467.64 99.1397C1468.1 99.2177 1474.98 98.1327 1478.59 97.5477C1482.36 96.9107 1482.64 96.8107 1482.92 96.7307C1483.07 96.6967 1483.22 96.6757 1483.43 96.7157" stroke="#FFCD00" stroke-linecap="round"/>
<path d="M1471.5 99.4285C1471.31 99.3755 1470.64 99.2265 1467.58 99.3405C1466.92 99.3645 1466.75 99.3085 1466.42 99.2715C1466.09 99.2335 1465.61 99.2025 1466.51 99.1545C1467.4 99.1065 1469.68 99.0435 1472.03 98.9785" stroke="#FFCD00" stroke-linecap="round"/>
<path d="M1742.08 1656.2C1741.88 1656.28 1741.03 1656.55 1738.11 1657.01C1737.34 1657.14 1736.99 1657.14 1736.15 1657.17C1735.49 1657.18 1734.35 1657.24 1730.99 1657.36C1727.62 1657.49 1722.06 1657.69 1719.13 1657.79C1716.21 1657.88 1716.09 1657.87 1715.45 1657.87C1713.67 1657.88 1712.34 1657.93 1710.44 1657.98C1708.7 1658.03 1705.36 1658.06 1703.35 1658.08C1700.78 1658.1 1699.65 1658.1 1698.37 1658.18C1696.69 1658.28 1694.55 1658.16 1692.7 1658.02C1691.32 1657.91 1689.78 1657.79 1688.61 1657.72C1687.93 1657.68 1687.06 1657.59 1686.37 1657.44C1686.2 1657.4 1686.04 1657.34 1686.1 1657.33C1686.46 1657.27 1687.61 1657.46 1690.14 1657.57C1691.84 1657.64 1694.38 1657.56 1694.87 1657.55C1696.02 1657.54 1691.71 1657.56 1690.76 1657.5C1688.08 1657.31 1687.34 1657.51 1686.77 1657.55C1685.63 1657.63 1683.84 1657.65 1682.94 1657.6C1682.73 1657.59 1682.55 1657.58 1682.61 1657.57C1682.99 1657.51 1684.56 1657.67 1688.61 1657.84C1691.42 1657.95 1695.76 1657.82 1699.55 1657.64C1703.34 1657.47 1706.45 1657.19 1708.11 1657.04C1709.77 1656.88 1709.9 1656.87 1707.45 1656.99C1705 1657.11 1699.97 1657.37 1697.52 1657.48C1695.08 1657.59 1695.37 1657.53 1701.42 1657.06C1707.47 1656.6 1719.27 1655.72 1720.41 1655.59C1721.55 1655.46 1711.68 1656.1 1706.79 1656.4C1701.9 1656.69 1702.28 1656.61 1706.32 1656.28C1710.35 1655.95 1718.02 1655.37 1714.52 1655.39C1711.02 1655.4 1696.13 1656.04 1695.67 1655.84C1695.22 1655.64 1709.65 1654.59 1710.5 1654.6C1711.34 1654.61 1698.17 1655.72 1697.27 1655.88C1696.37 1656.05 1708.15 1655.23 1710.22 1655.1C1712.29 1654.97 1704.28 1655.54 1699.9 1655.88C1695.52 1656.22 1695 1656.31 1696.48 1656.26C1697.96 1656.22 1701.46 1656.04 1703.17 1655.97C1704.88 1655.91 1704.71 1655.96 1702.63 1656.18C1700.54 1656.4 1696.56 1656.79 1694.3 1657.03C1692.04 1657.27 1691.63 1657.35 1691.51 1657.41C1691.4 1657.48 1691.6 1657.52 1694.15 1657.28C1696.7 1657.05 1701.61 1656.53 1704.06 1656.28C1706.51 1656.03 1706.36 1656.07 1705.36 1656.17C1702.54 1656.46 1700.52 1656.64 1700.4 1656.71C1700.36 1656.74 1700.58 1656.82 1702.78 1656.83C1704.98 1656.85 1709.22 1656.82 1715.82 1656.21C1722.43 1655.6 1731.26 1654.41 1733.1 1654.02C1734.94 1653.63 1729.52 1654.09 1728.13 1654.26C1726.75 1654.42 1729.57 1654.28 1726.14 1654.43C1722.71 1654.58 1712.95 1655.02 1707.44 1655.34C1701.92 1655.65 1700.94 1655.82 1700.54 1655.93C1700.15 1656.03 1700.36 1656.07 1705.27 1655.83C1710.18 1655.59 1719.77 1655.08 1724.62 1654.84C1729.48 1654.6 1729.31 1654.65 1725.81 1654.97C1722.31 1655.29 1715.48 1655.87 1711.74 1656.21C1707.56 1656.59 1706.98 1656.76 1706.89 1656.84C1706.86 1656.86 1707.1 1656.88 1709.91 1656.62C1712.73 1656.37 1718.19 1655.85 1720.49 1655.51C1722.79 1655.16 1721.78 1655.01 1719.93 1654.95C1718.07 1654.9 1715.4 1654.95 1714.15 1654.99C1712.89 1655.02 1713.12 1655.04 1715.69 1654.8C1718.26 1654.56 1723.15 1654.07 1721.96 1654.02C1720.78 1653.98 1713.36 1654.41 1709.46 1654.65C1705.56 1654.9 1705.39 1654.96 1705.4 1655C1705.41 1655.04 1705.6 1655.07 1708.87 1654.76C1712.13 1654.44 1718.47 1653.79 1720.43 1653.56C1722.38 1653.33 1719.77 1653.55 1718.3 1653.68C1716.83 1653.82 1716.59 1653.87 1720.01 1653.71C1723.43 1653.56 1730.52 1653.2 1731.66 1653.27C1732.8 1653.35 1727.78 1653.87 1725.27 1654.11C1722.77 1654.35 1722.93 1654.28 1723.6 1654.2C1724.27 1654.12 1725.45 1654.03 1725.95 1654.03C1726.45 1654.03 1726.23 1654.11 1725.75 1654.22C1725.27 1654.33 1724.54 1654.45 1724.28 1654.53C1724.19 1654.55 1726.27 1654.45 1727.48 1654.26C1727.98 1654.19 1724.19 1654.49 1723.01 1654.62C1721.83 1654.74 1722.34 1654.76 1723.77 1654.64C1725.2 1654.53 1727.55 1654.28 1729.51 1654.14C1731.47 1654 1732.99 1653.98 1733.68 1654.03C1734.37 1654.08 1734.2 1654.19 1733.48 1654.35C1732.76 1654.52 1731.51 1654.73 1731.61 1654.76C1733.11 1655.22 1735.02 1654.46 1734.71 1654.61C1734.13 1654.89 1732.47 1655.06 1731.74 1655.22C1731.01 1655.38 1731.21 1655.4 1732.62 1655.33C1736.65 1655.15 1739.11 1655.04 1738.21 1655.23C1737.54 1655.38 1736.44 1655.51 1735.97 1655.56C1734.62 1655.72 1740.37 1655.32 1740.49 1655.36C1740.63 1655.41 1739.47 1655.64 1738.7 1655.83C1738.65 1655.84 1739.58 1655.86 1739.63 1655.86C1740.34 1655.91 1738.01 1655.93 1737.92 1655.88C1737.71 1655.75 1738.9 1655.66 1739.36 1655.71C1740.25 1655.81 1737.11 1656.13 1736.27 1656.13C1736.03 1656.14 1736.19 1656.03 1736.33 1655.98C1737.66 1655.47 1740.01 1655.64 1740.21 1655.73C1740.39 1655.8 1738.03 1656.09 1734.87 1656.28C1733.61 1656.35 1733.05 1656.33 1732.84 1656.28C1732.72 1656.25 1735.05 1655.84 1738.31 1655.48C1739.5 1655.35 1739.74 1655.36 1739.63 1655.45C1739.11 1655.85 1738.05 1655.99 1736.14 1656.13C1734.7 1656.23 1732.32 1656.2 1731.13 1656.16C1729.95 1656.12 1730.05 1656.01 1730.95 1655.77C1733.55 1655.07 1735.82 1654.72 1736.52 1654.74C1736.74 1654.74 1736.65 1654.95 1736.54 1655.08C1736.04 1655.64 1734.06 1655.62 1733.17 1655.57C1732.84 1655.55 1734.93 1655.11 1736.94 1654.85C1738.59 1654.64 1739.39 1654.93 1739.64 1655.04C1739.76 1655.09 1739.82 1655.2 1739.8 1655.29C1739.65 1655.79 1736.82 1656.13 1735.24 1656.38C1733.3 1656.68 1738.58 1656.42 1738.14 1656.48C1737.31 1656.6 1736.57 1656.56 1734.9 1656.53C1733.43 1656.51 1730.69 1656.29 1729.09 1656.22C1727.49 1656.15 1727.11 1656.19 1727.79 1656.22C1730.21 1656.32 1732.18 1656.28 1732.22 1656.26C1732.73 1655.97 1729.96 1656.34 1729.29 1656.45C1728.76 1656.54 1732.18 1656.35 1732.54 1656.38C1733.88 1656.52 1729.34 1656.79 1729.19 1656.79C1729.08 1656.79 1730.48 1656.6 1731.08 1656.39C1731.51 1656.24 1728.63 1656.56 1728.52 1656.45C1728.4 1656.34 1730.23 1655.93 1731.07 1655.72C1731.91 1655.51 1731.7 1655.52 1729.43 1655.86C1727.16 1656.19 1722.82 1656.86 1720.68 1657.17C1718.54 1657.49 1718.72 1657.44 1720.78 1657.09C1722.85 1656.73 1726.79 1656.06 1726.81 1655.89C1726.83 1655.73 1722.8 1656.09 1722.79 1656.05C1722.78 1656 1726.91 1655.54 1727.71 1655.52C1728.52 1655.51 1725.87 1655.96 1725.58 1656C1723.7 1656.3 1729.96 1655.27 1730.02 1655.33C1730.65 1656.01 1727.86 1655.74 1727.15 1655.74C1726.98 1655.75 1729.53 1655.11 1732.59 1654.6C1733.33 1654.48 1731.45 1654.59 1729.94 1654.75C1727.86 1654.97 1734.21 1654.56 1734.36 1654.65C1736.03 1655.61 1729.23 1655.88 1728.6 1655.89C1727.87 1655.91 1727.2 1656.3 1726.56 1656.52C1726.38 1656.58 1726.2 1656.65 1726.62 1656.7C1728.05 1656.88 1729.28 1656.78 1728.92 1656.77C1727.13 1656.74 1725.5 1657.02 1724.91 1657.13C1724.56 1657.2 1723.63 1657.17 1722.35 1657.1C1721.75 1657.08 1720.65 1656.94 1717.93 1656.87C1716.18 1656.83 1713.7 1656.91 1714.77 1656.66C1715.84 1656.41 1720.53 1655.85 1720.94 1655.79C1721.35 1655.74 1717.34 1656.21 1714.93 1656.45C1712.52 1656.69 1711.84 1656.69 1711.56 1656.66C1711.29 1656.64 1711.44 1656.59 1712.69 1656.52C1713.94 1656.45 1716.29 1656.36 1717.73 1656.29C1719.62 1656.19 1721.11 1656.05 1722.59 1655.97C1723.05 1655.95 1722.91 1655.96 1721.11 1656.1C1719.3 1656.24 1715.82 1656.51 1713.68 1656.65C1711.55 1656.78 1710.86 1656.77 1710.59 1656.8C1709.47 1656.89 1714.18 1656.9 1714.81 1656.82C1715.19 1656.78 1712.98 1656.77 1709.55 1656.84C1708.64 1656.86 1711.44 1656.94 1713.88 1657.06C1716.99 1657.22 1707.84 1657.34 1708.1 1657.42C1708.25 1657.47 1708.43 1657.48 1709.65 1657.44C1710.87 1657.4 1713.11 1657.31 1714.44 1657.24C1716.6 1657.12 1717.45 1656.98 1718.19 1656.94C1716.97 1657.13 1714.5 1657.39 1714.11 1657.38C1713.89 1657.36 1713.6 1657.31 1713.24 1657.01" stroke="#FFCD00" stroke-linecap="round"/>
<defs>
<filter id="filter0_d_50_95" x="2072.41" y="1008.56" width="210.775" height="206.702" filterUnits="userSpaceOnUse" color-interpolation-filters="sRGB">
<feFlood flood-opacity="0" result="BackgroundImageFix"/>
<feColorMatrix in="SourceAlpha" type="matrix" values="0 0 0 0 0 0 0 0 0 0 0 0 0 0 0 0 0 0 127 0" result="hardAlpha"/>
<feOffset dy="4"/>
<feGaussianBlur stdDeviation="2"/>
<feComposite in2="hardAlpha" operator="out"/>
<feColorMatrix type="matrix" values="0 0 0 0 0 0 0 0 0 0 0 0 0 0 0 0 0 0 0.25 0"/>
<feBlend mode="normal" in2="BackgroundImageFix" result="effect1_dropShadow_50_95"/>
<feBlend mode="normal" in="SourceGraphic" in2="effect1_dropShadow_50_95" result="shape"/>
</filter>
</defs>
</svg>
